<svg width="185" height="34" viewBox="0 0 185 34" fill="none" xmlns="http://www.w3.org/2000/svg">
<g opacity="0.6">
<path fill-rule="evenodd" clip-rule="evenodd" d="M28.1202 20.018C30.7026 20.0306 33.1162 20.0173 34.6819 19.9743C33.2352 27.9462 26.0812 34 17.4726 34C7.82226 34 0 26.3892 0 17C0 7.61077 7.82226 0 17.4726 0C26.0636 0 33.2055 6.02951 34.6708 13.9759C34.5173 13.9681 30.2775 13.9675 28.1674 13.97C27.9533 13.1097 27.1471 10.6459 24.5667 8.38539C21.6954 6.36607 20.738 5.62927 8.93321 6.05635L9.09229 27.4884C9.09229 27.4884 15.1513 27.6905 19.7979 27.2983C24.0232 26.3546 26.548 23.9512 28.1202 20.018Z" fill="white"/>
<path fill-rule="evenodd" clip-rule="evenodd" d="M13.542 11.0285V22.5205C13.542 22.5205 17.7266 22.6996 19.2861 22.3656C21.3519 21.9224 23.9597 20.2842 23.9121 16.7739C24.0112 13.7643 21.5204 11.3383 19.127 11.1834C16.7337 11.0285 13.542 11.0285 13.542 11.0285Z" fill="white"/>
<path d="M54.4498 20.5198C54.3726 21.6543 54.0342 22.4531 53.4624 22.9947C52.8649 23.5359 52.0066 23.7932 50.8112 23.7932C49.5112 23.7932 48.5753 23.3299 47.952 22.4273C47.3545 21.4991 47.0435 20.0565 47.0435 18.0708V16.6794C47.0693 14.7974 47.406 13.406 48.0309 12.5036C48.6542 11.601 49.6159 11.1377 50.8627 11.1377C52.0324 11.1377 52.9164 11.3947 53.4882 11.9363C54.0603 12.4778 54.3726 13.3277 54.4759 14.5146H58.2964C58.0888 12.4778 57.3348 10.8804 56.0351 9.7459C54.7364 8.61177 52.994 8.04471 50.8627 8.04471C49.3293 8.04471 47.9778 8.40583 46.8085 9.12646C45.6646 9.84839 44.7561 10.8804 44.1312 12.2204C43.5079 13.5608 43.1953 15.1075 43.1953 16.8856V17.9942C43.1953 20.7516 43.8717 22.9177 45.2232 24.5155C46.6005 26.0873 48.4466 26.8875 50.8112 26.8875C52.994 26.8875 54.7364 26.3204 56.0609 25.1863C57.3866 24.0519 58.1145 22.5055 58.2707 20.5198H54.4498Z" fill="white"/>
<path d="M68.3639 12.9115C67.9997 12.809 67.6359 12.7563 67.2203 12.7563C65.9203 12.7563 64.9071 13.3761 64.1789 14.6383L64.0746 13.015H60.5918V26.6246H64.2565V17.7057C64.6979 16.7788 65.608 16.3142 66.9853 16.3142C67.3752 16.3142 67.8178 16.3398 68.3107 16.4177L68.3639 12.9115Z" fill="white"/>
<path d="M72.8446 13.0198H68.895L73.729 26.6549L73.2876 27.7635C73.0797 28.254 72.8189 28.6151 72.4821 28.821C72.1438 29.0273 71.6235 29.1294 70.9213 29.1294H70.3766V31.8885C70.9213 32.0433 71.4673 32.1203 71.9876 32.1203C73.8852 32.1203 75.2367 31.2432 76.0422 29.465L76.3545 28.7431L81.8906 13.0198H77.9397L75.3928 21.4741L72.8446 13.0198Z" fill="white"/>
<path d="M95.6975 19.768C95.6975 17.5777 95.2301 15.8506 94.2942 14.6127C93.3325 13.3761 92.0328 12.7563 90.3446 12.7563C88.9142 12.7563 87.7449 13.2979 86.8605 14.3554L86.7314 13.015H83.3262V31.8581H86.9909V25.439C87.8495 26.3931 88.9657 26.8832 90.3703 26.8832C92.0071 26.8832 93.281 26.2379 94.2427 24.9757C95.2043 23.7123 95.6975 22.0366 95.6975 19.9484V19.768ZM89.4087 23.9441C88.2391 23.9441 87.4596 23.506 86.9909 22.6037V17.0106C87.4322 16.1335 88.212 15.6958 89.3829 15.6958C90.2399 15.6958 90.889 16.0314 91.3577 16.7261C91.7991 17.4228 92.0328 18.4021 92.0328 19.6656C92.0328 22.5267 91.1501 23.9441 89.4087 23.9441Z" fill="white"/>
<path d="M98.6723 9.66833V13.0196H96.6704V15.7004H98.6723V23.0206C98.7241 25.5989 100.05 26.8879 102.596 26.8879C103.376 26.8879 104.104 26.7841 104.832 26.5526V23.8191C104.52 23.8718 104.156 23.8974 103.74 23.8974C103.194 23.8974 102.83 23.7936 102.622 23.5621C102.44 23.3558 102.337 22.995 102.337 22.479V15.7004H104.702V13.0196H102.337V9.66833H98.6723Z" fill="white"/>
<path d="M105.764 19.846C105.764 22.0108 106.362 23.7378 107.531 25.0013C108.726 26.2634 110.286 26.8832 112.286 26.8832C114.263 26.8832 115.822 26.2379 117.017 24.9757C118.187 23.7123 118.784 22.0366 118.784 19.9484L118.758 19.0203C118.602 17.0873 117.953 15.5665 116.784 14.4323C115.614 13.3234 114.106 12.7563 112.261 12.7563C110.935 12.7563 109.791 13.0405 108.804 13.6335C107.842 14.2005 107.063 15.0249 106.544 16.0824C106.024 17.1383 105.764 18.351 105.764 19.6911V19.846ZM110.155 16.7261C110.65 16.0314 111.352 15.6958 112.261 15.6958C113.145 15.6958 113.847 16.0569 114.366 16.752C114.86 17.4484 115.094 18.4276 115.094 19.6911C115.094 21.1864 114.86 22.2426 114.366 22.939C113.847 23.6085 113.171 23.9441 112.286 23.9441C111.352 23.9441 110.65 23.6085 110.155 22.9134C109.688 22.2426 109.429 21.2378 109.429 19.9484C109.429 18.5059 109.688 17.4228 110.155 16.7261Z" fill="white"/>
<path d="M127.027 26.6289C128.638 26.6289 130.094 26.2422 131.368 25.5203C132.666 24.7996 133.655 23.7677 134.356 22.4273C135.058 21.1127 135.422 19.5919 135.422 17.8904V17.0405C135.422 15.3389 135.058 13.8182 134.33 12.4778C133.628 11.1377 132.615 10.1057 131.341 9.38508C130.068 8.66283 128.612 8.30203 126.975 8.30203H121.283V26.6289H127.027ZM126.975 11.3692C128.483 11.3692 129.627 11.8596 130.406 12.8133C131.186 13.7671 131.576 15.1841 131.576 17.0405V17.9942C131.55 19.7979 131.133 21.1907 130.353 22.1444C129.573 23.0981 128.43 23.5873 126.949 23.5873H125.104V11.3692H126.975Z" fill="white"/>
<path d="M141.789 13.0162H138.097V26.6257H141.789V13.0162ZM138.461 10.8501C138.825 11.2112 139.319 11.3916 139.943 11.3916C140.566 11.3916 141.061 11.2112 141.451 10.8501C141.814 10.5161 141.997 10.0512 141.997 9.50968C141.997 8.96977 141.814 8.50487 141.451 8.16961C141.086 7.80848 140.566 7.62808 139.943 7.62808C139.319 7.62808 138.825 7.80848 138.435 8.16961C138.071 8.50487 137.889 8.96977 137.889 9.50968C137.889 10.0512 138.071 10.5161 138.461 10.8501Z" fill="white"/>
<path d="M149.538 26.6305V15.7017H152.266V13.0209H149.538V11.9123C149.538 10.6233 150.24 9.97932 151.617 9.97932C152.059 9.97932 152.423 10.0049 152.735 10.0818L152.761 7.29853C152.033 7.11812 151.409 7.03989 150.889 7.03989C149.304 7.03989 148.082 7.45371 147.199 8.30366C146.314 9.15361 145.873 10.3404 145.873 11.8612V13.0209H143.819V15.7017H145.873V26.6305H149.538Z" fill="white"/>
<path d="M158.828 26.6305V15.7017H161.558V13.0209H158.828V11.9123C158.828 10.6233 159.53 9.97932 160.907 9.97932C161.35 9.97932 161.713 10.0049 162.025 10.0818L162.051 7.29853C161.323 7.11812 160.699 7.03989 160.179 7.03989C158.594 7.03989 157.373 7.45371 156.489 8.30366C155.606 9.15361 155.163 10.3404 155.163 11.8612V13.0209H153.111V15.7017H155.163V26.6305H158.828Z" fill="white"/>
<path d="M172.654 26.2379C173.589 25.8001 174.343 25.2075 174.889 24.4342L173.069 22.423C172.289 23.4281 171.172 23.9441 169.769 23.9441C168.858 23.9441 168.105 23.6867 167.507 23.1452C166.909 22.6037 166.546 21.8814 166.417 21.006H175.174V19.5107C175.174 17.3714 174.628 15.6958 173.564 14.5102C172.472 13.3506 170.99 12.7563 169.119 12.7563C167.871 12.7563 166.753 13.0405 165.766 13.6335C164.804 14.2261 164.05 15.0505 163.504 16.1335C162.986 17.191 162.699 18.4276 162.699 19.7936V20.1547C162.699 22.1915 163.349 23.8144 164.596 25.0527C165.871 26.2634 167.507 26.8832 169.535 26.8832C170.679 26.8832 171.718 26.676 172.654 26.2379ZM170.912 16.3653C171.328 16.8044 171.562 17.4228 171.562 18.2472V18.5314H166.468C166.598 17.6288 166.884 16.9069 167.325 16.4177C167.794 15.9276 168.391 15.6958 169.119 15.6958C169.873 15.6958 170.497 15.9276 170.912 16.3653Z" fill="white"/>
<path d="M185 12.9115C184.636 12.809 184.271 12.7563 183.856 12.7563C182.556 12.7563 181.543 13.3761 180.815 14.6383L180.711 13.015H177.229V26.6246H180.894V17.7057C181.335 16.7788 182.245 16.3142 183.622 16.3142C184.012 16.3142 184.453 16.3398 184.948 16.4177L185 12.9115Z" fill="white"/>
</g>
</svg>
