<svg width="186" height="28" viewBox="0 0 186 28" fill="none" xmlns="http://www.w3.org/2000/svg">
<g opacity="0.6">
<rect x="6.73584" y="20.75" width="6.73597" height="6.74999" fill="white"/>
<rect y="14" width="6.73597" height="6.74999" fill="white"/>
<path fill-rule="evenodd" clip-rule="evenodd" d="M16.8398 0.5H13.4718L13.4718 7.24999L6.73584 7.24999V14H13.4718V20.75H16.8398C22.4201 20.75 26.9438 16.2169 26.9438 10.625C26.9438 5.03311 22.4201 0.5 16.8398 0.5ZM13.4718 7.24999H16.8398C18.6999 7.24999 20.2078 8.76103 20.2078 10.625C20.2078 12.4889 18.6999 14 16.8398 14H13.4718V7.24999Z" fill="white"/>
<path d="M48.2801 4.18929C49.9782 4.18929 51.448 4.47231 52.6896 5.03835C53.9495 5.60439 54.9172 6.4078 55.5928 7.44858C56.2683 8.48935 56.6061 9.72186 56.6061 11.1461C56.6061 12.552 56.2683 13.7845 55.5928 14.8436C54.9172 15.8844 53.9495 16.6878 52.6896 17.2538C51.448 17.8016 49.9782 18.0755 48.2801 18.0755H44.4183V23.3615H39.9814V4.18929H48.2801ZM48.0336 14.4601C49.3665 14.4601 50.3799 14.1771 51.0737 13.6111C51.7675 13.0268 52.1145 12.2051 52.1145 11.1461C52.1145 10.0688 51.7675 9.24712 51.0737 8.68108C50.3799 8.09678 49.3665 7.80463 48.0336 7.80463H44.4183V14.4601H48.0336Z" fill="white"/>
<path d="M59.4725 8.6263H63.7451V23.3615H59.4725V8.6263ZM61.6088 6.57213C60.8236 6.57213 60.1846 6.34389 59.6916 5.88741C59.1986 5.43093 58.9521 4.86489 58.9521 4.18929C58.9521 3.5137 59.1986 2.94766 59.6916 2.49118C60.1846 2.0347 60.8236 1.80646 61.6088 1.80646C62.3939 1.80646 63.033 2.02557 63.526 2.46379C64.0189 2.90202 64.2654 3.44979 64.2654 4.10713C64.2654 4.81924 64.0189 5.41267 63.526 5.88741C63.033 6.34389 62.3939 6.57213 61.6088 6.57213Z" fill="white"/>
<path d="M77.0772 23.3615L73.8453 18.8424L70.504 23.3615H65.848L71.5173 15.9391L66.0397 8.6263H70.8326L73.9549 12.9264L77.1593 8.6263H81.7058L76.2281 15.8296L81.9249 23.3615H77.0772Z" fill="white"/>
<path d="M97.9778 16.0487C97.9778 16.1035 97.9505 16.4869 97.8957 17.199H86.7486C86.9495 18.112 87.4242 18.8332 88.1728 19.3628C88.9214 19.8923 89.8526 20.157 90.9664 20.157C91.7333 20.157 92.4089 20.0475 92.9932 19.8284C93.5957 19.591 94.1526 19.2258 94.6639 18.7328L96.9371 21.1978C95.5494 22.7864 93.5227 23.5807 90.8569 23.5807C89.1953 23.5807 87.7255 23.2611 86.4474 22.622C85.1693 21.9647 84.1833 21.0609 83.4894 19.9105C82.7956 18.7602 82.4487 17.4547 82.4487 15.9939C82.4487 14.5514 82.7865 13.255 83.462 12.1047C84.1559 10.9361 85.0962 10.0323 86.283 9.39319C87.4881 8.73586 88.8302 8.40719 90.3091 8.40719C91.7516 8.40719 93.0571 8.7176 94.2256 9.33841C95.3942 9.95923 96.3072 10.8539 96.9645 12.0225C97.6401 13.1729 97.9778 14.5149 97.9778 16.0487ZM90.3365 11.6391C89.3688 11.6391 88.5563 11.913 87.899 12.4607C87.2416 13.0085 86.8399 13.7572 86.6939 14.7066H93.9518C93.8057 13.7754 93.404 13.0359 92.7467 12.4881C92.0894 11.9221 91.286 11.6391 90.3365 11.6391Z" fill="white"/>
<path d="M100.822 3.03896H105.095V23.3615H100.822V3.03896Z" fill="white"/>
<path d="M127.794 4.18929L119.495 23.3615H115.113L106.842 4.18929H111.635L117.468 17.8838L123.384 4.18929H127.794Z" fill="white"/>
<path d="M142.43 16.0487C142.43 16.1035 142.403 16.4869 142.348 17.199H131.201C131.402 18.112 131.877 18.8332 132.625 19.3628C133.374 19.8923 134.305 20.157 135.419 20.157C136.186 20.157 136.861 20.0475 137.446 19.8284C138.048 19.591 138.605 19.2258 139.116 18.7328L141.39 21.1978C140.002 22.7864 137.975 23.5807 135.309 23.5807C133.648 23.5807 132.178 23.2611 130.9 22.622C129.622 21.9647 128.636 21.0609 127.942 19.9105C127.248 18.7602 126.901 17.4547 126.901 15.9939C126.901 14.5514 127.239 13.255 127.915 12.1047C128.608 10.9361 129.549 10.0323 130.736 9.39319C131.941 8.73586 133.283 8.40719 134.762 8.40719C136.204 8.40719 137.51 8.7176 138.678 9.33841C139.847 9.95923 140.76 10.8539 141.417 12.0225C142.093 13.1729 142.43 14.5149 142.43 16.0487ZM134.789 11.6391C133.821 11.6391 133.009 11.913 132.351 12.4607C131.694 13.0085 131.292 13.7572 131.146 14.7066H138.404C138.258 13.7754 137.856 13.0359 137.199 12.4881C136.542 11.9221 135.738 11.6391 134.789 11.6391Z" fill="white"/>
<path d="M149.356 10.5709C149.867 9.8588 150.552 9.32015 151.41 8.95497C152.286 8.58978 153.29 8.40719 154.423 8.40719V12.3512C153.948 12.3147 153.628 12.2964 153.464 12.2964C152.241 12.2964 151.282 12.6433 150.588 13.3372C149.894 14.0128 149.547 15.0353 149.547 16.4048V23.3615H145.275V8.6263H149.356V10.5709Z" fill="white"/>
<path d="M161.974 23.5807C160.75 23.5807 159.554 23.4346 158.386 23.1424C157.217 22.832 156.286 22.4486 155.592 21.9921L157.016 18.9245C157.674 19.3445 158.468 19.6914 159.399 19.9653C160.33 20.2209 161.243 20.3488 162.138 20.3488C163.946 20.3488 164.85 19.9014 164.85 19.0067C164.85 18.5867 164.603 18.2855 164.11 18.1029C163.617 17.9203 162.859 17.7651 161.837 17.6373C160.632 17.4547 159.637 17.2447 158.852 17.0073C158.066 16.7699 157.382 16.35 156.797 15.7474C156.231 15.1449 155.948 14.2867 155.948 13.1729C155.948 12.2416 156.213 11.42 156.743 10.7079C157.29 9.97749 158.076 9.41145 159.098 9.00974C160.139 8.60804 161.362 8.40719 162.768 8.40719C163.809 8.40719 164.84 8.52587 165.863 8.76324C166.904 8.98236 167.762 9.29276 168.437 9.69447L167.013 12.7346C165.717 12.0043 164.302 11.6391 162.768 11.6391C161.855 11.6391 161.17 11.7669 160.714 12.0225C160.257 12.2782 160.029 12.6068 160.029 13.0085C160.029 13.465 160.276 13.7845 160.769 13.9671C161.262 14.1497 162.047 14.3232 163.124 14.4875C164.329 14.6884 165.315 14.9075 166.082 15.1449C166.849 15.364 167.515 15.7748 168.081 16.3774C168.647 16.9799 168.93 17.8198 168.93 18.8971C168.93 19.8101 168.657 20.6227 168.109 21.3348C167.561 22.0469 166.758 22.6038 165.699 23.0055C164.658 23.3889 163.416 23.5807 161.974 23.5807Z" fill="white"/>
<path d="M186 16.0487C186 16.1035 185.973 16.4869 185.918 17.199H174.771C174.972 18.112 175.447 18.8332 176.195 19.3628C176.944 19.8923 177.875 20.157 178.989 20.157C179.756 20.157 180.431 20.0475 181.015 19.8284C181.618 19.591 182.175 19.2258 182.686 18.7328L184.959 21.1978C183.572 22.7864 181.545 23.5807 178.879 23.5807C177.218 23.5807 175.748 23.2611 174.47 22.622C173.192 21.9647 172.206 21.0609 171.512 19.9105C170.818 18.7602 170.471 17.4547 170.471 15.9939C170.471 14.5514 170.809 13.255 171.484 12.1047C172.178 10.9361 173.119 10.0323 174.305 9.39319C175.51 8.73586 176.852 8.40719 178.331 8.40719C179.774 8.40719 181.079 8.7176 182.248 9.33841C183.417 9.95923 184.329 10.8539 184.987 12.0225C185.662 13.1729 186 14.5149 186 16.0487ZM178.359 11.6391C177.391 11.6391 176.579 11.913 175.921 12.4607C175.264 13.0085 174.862 13.7572 174.716 14.7066H181.974C181.828 13.7754 181.426 13.0359 180.769 12.4881C180.112 11.9221 179.308 11.6391 178.359 11.6391Z" fill="white"/>
</g>
</svg>
