<svg width="135" height="40" viewBox="0 0 135 40" fill="none" xmlns="http://www.w3.org/2000/svg">
<g opacity="0.6">
<path d="M51.6694 17.4788L48.9099 26.8768C48.8 27.2527 48.5694 27.5833 48.2529 27.8187C47.9364 28.0541 47.551 28.1816 47.1548 28.1821C46.7489 28.1844 46.3541 28.0517 46.0338 27.8055C45.7135 27.5592 45.4865 27.2137 45.3892 26.8246L41.7944 12.832C41.7378 12.6169 41.7319 12.392 41.7771 12.1743C41.8224 11.9567 41.9177 11.7523 42.0556 11.5767C42.1935 11.4012 42.3703 11.2593 42.5725 11.1619C42.7747 11.0645 42.9968 11.0142 43.2217 11.015C43.5516 11.0164 43.8718 11.1258 44.132 11.3261C44.3922 11.5264 44.5778 11.8063 44.6596 12.1219L46.8376 20.7681C46.8645 20.8683 46.9242 20.9569 47.0074 21.0201C47.0906 21.0834 47.1926 21.1176 47.2976 21.1176C47.4025 21.1176 47.5045 21.0834 47.5877 21.0201C47.6709 20.9569 47.7306 20.8683 47.7575 20.7681L50.4747 12.0175C50.5636 11.7169 50.7486 11.4528 51.0021 11.2646C51.2555 11.0764 51.5638 10.9742 51.8808 10.9732H52.3883C52.7054 10.9742 53.0137 11.0764 53.2671 11.2646C53.5205 11.4528 53.7056 11.7169 53.7945 12.0175L56.4906 20.6845C56.5175 20.7847 56.5771 20.8734 56.6603 20.9366C56.7435 20.9998 56.8455 21.0341 56.9505 21.0341C57.0555 21.0341 57.1575 20.9998 57.2407 20.9366C57.3239 20.8734 57.3835 20.7847 57.4104 20.6845L59.6413 12.101C59.7328 11.7979 59.9214 11.5322 60.1787 11.3439C60.4361 11.1556 60.7483 11.0549 61.0686 11.0568C61.2881 11.0591 61.5043 11.11 61.7013 11.2057C61.8983 11.3013 62.071 11.4394 62.2069 11.6096C62.3428 11.7799 62.4384 11.9781 62.4865 12.1896C62.5347 12.4011 62.5343 12.6206 62.4853 12.832L58.8694 26.8246C58.7717 27.2155 58.5431 27.5623 58.2206 27.8087C57.8982 28.0552 57.5009 28.1867 57.0932 28.1821C56.6984 28.1822 56.314 28.0562 55.9977 27.8228C55.6814 27.5895 55.45 27.2612 55.3381 26.8872L52.5787 17.4892C52.5498 17.3929 52.4905 17.3082 52.4094 17.2476C52.3283 17.187 52.2296 17.1537 52.1279 17.1525C52.0262 17.1514 51.9268 17.1824 51.8443 17.2411C51.7618 17.2998 51.7005 17.3831 51.6694 17.4788Z" fill="white"/>
<path d="M66.4498 22.6999C66.4952 23.1404 66.6019 23.5726 66.7669 23.9843C66.9245 24.3616 67.1383 24.7136 67.4013 25.0285C67.6622 25.3402 67.9818 25.599 68.3423 25.7908C68.7079 25.9638 69.1107 26.0462 69.5159 26.0309C70.1276 26.0324 70.7212 25.8259 71.1969 25.4462C71.5705 25.135 71.8701 24.7464 72.0745 24.308C72.1586 24.1231 72.2954 23.9665 72.4681 23.8571C72.6408 23.7477 72.842 23.6903 73.0472 23.6919H73.5547C73.739 23.686 73.9217 23.7278 74.0847 23.8133C74.2476 23.8987 74.385 24.0247 74.4834 24.1789C74.5817 24.333 74.6375 24.5098 74.6452 24.6919C74.6529 24.8739 74.6123 25.0547 74.5274 25.2164C74.4428 25.3731 74.3476 25.5402 74.2525 25.6863C73.9071 26.2558 73.4675 26.7641 72.952 27.19C72.4485 27.5883 71.88 27.899 71.271 28.1089C70.6677 28.3251 70.0307 28.4347 69.389 28.4327C68.5323 28.4484 67.6843 28.2622 66.915 27.8897C66.1982 27.5359 65.5615 27.0421 65.0436 26.4382C64.5239 25.8188 64.1226 25.1111 63.8594 24.3497C63.5787 23.5253 63.4359 22.6612 63.4365 21.7914C63.4367 20.9728 63.5798 20.1603 63.8594 19.3897C64.1221 18.6439 64.5237 17.9533 65.0436 17.3534C65.5828 16.7382 66.2527 16.248 67.0056 15.9177C67.7585 15.5875 68.5759 15.4252 69.3996 15.4425C70.2206 15.4317 71.0348 15.5918 71.789 15.9124C72.4857 16.2094 73.1096 16.651 73.6181 17.2072C74.1339 17.7749 74.5293 18.4389 74.7811 19.1599C75.0608 19.9411 75.2004 20.7645 75.1934 21.593V21.6765C75.1934 21.9535 75.0821 22.2191 74.8838 22.4149C74.6855 22.6107 74.4166 22.7208 74.1362 22.7208L66.4498 22.6999ZM71.4084 20.4966C71.5064 20.4962 71.6031 20.4731 71.6904 20.429C71.7777 20.3849 71.8532 20.3212 71.9109 20.2428C71.9686 20.1645 72.0067 20.0739 72.0223 19.9782C72.0379 19.8826 72.0304 19.7847 72.0005 19.6925C72.0005 19.5985 71.9265 19.515 71.8842 19.421C71.7327 19.1139 71.5288 18.8348 71.2815 18.5961C71.0264 18.3567 70.7241 18.1718 70.3934 18.0531C70.035 17.9207 69.6553 17.8535 69.2727 17.8547C68.9081 17.8485 68.5467 17.9235 68.2154 18.074C67.8985 18.2049 67.6111 18.3966 67.3696 18.6378C67.1156 18.8773 66.9078 19.1604 66.7564 19.4732C66.7274 19.5233 66.7026 19.5757 66.6824 19.6298C66.6404 19.7229 66.6224 19.8248 66.6301 19.9265C66.6378 20.0281 66.6709 20.1262 66.7264 20.2121C66.782 20.298 66.8582 20.3689 66.9483 20.4186C67.0384 20.4682 67.1396 20.495 67.2427 20.4966H71.4084Z" fill="white"/>
<path d="M77.4033 11.8817C77.4033 11.6536 77.4943 11.4347 77.6566 11.2725C77.8189 11.1103 78.0394 11.0177 78.2703 11.015H84.4448C85.1856 11.0033 85.9227 11.12 86.6228 11.3596C87.2234 11.5646 87.7794 11.8799 88.2615 12.2889C88.7076 12.6621 89.0681 13.1249 89.3188 13.6464C89.559 14.1639 89.6816 14.727 89.6783 15.2963C89.682 15.9981 89.5114 16.6901 89.1814 17.3117C88.8183 17.9692 88.3129 18.5397 87.7012 18.9824C88.1912 19.1761 88.6477 19.4439 89.0545 19.776C89.4133 20.0756 89.7235 20.4278 89.9743 20.8202C90.1871 21.1604 90.3475 21.5299 90.4501 21.9167C90.5647 22.3247 90.6216 22.7464 90.6193 23.1698C90.6232 23.8422 90.4713 24.5065 90.1752 25.112C89.8758 25.7098 89.4671 26.2479 88.9699 26.6992C88.4064 27.1919 87.7535 27.5746 87.0457 27.827C86.4365 28.0482 85.7916 28.1579 85.1426 28.1507H78.2385C78.0086 28.1507 77.7881 28.0605 77.6255 27.8999C77.4629 27.7393 77.3716 27.5215 77.3716 27.2944L77.4033 11.8817ZM80.3531 16.9984C80.3531 17.2255 80.4444 17.4433 80.607 17.6039C80.7696 17.7644 80.9901 17.8547 81.2201 17.8547H84.043C84.425 17.8592 84.8047 17.7955 85.1637 17.6667C85.4931 17.5533 85.798 17.3797 86.0624 17.155C86.3025 16.9413 86.4967 16.6821 86.6333 16.3927C86.7612 16.1247 86.8328 15.8338 86.8437 15.5377C86.8546 15.2415 86.8046 14.9463 86.6968 14.6698C86.5965 14.4259 86.4409 14.208 86.2421 14.0328C86.0143 13.8404 85.7476 13.698 85.4598 13.6151C85.1169 13.5137 84.7604 13.4644 84.4025 13.4689H81.2306C81.0007 13.4689 80.7802 13.5591 80.6176 13.7197C80.455 13.8803 80.3637 14.0981 80.3637 14.3252L80.3531 16.9984ZM80.3531 24.8405C80.3531 25.0676 80.4444 25.2854 80.607 25.446C80.7696 25.6066 80.9901 25.6968 81.2201 25.6968H84.4659C84.8442 25.6944 85.2207 25.6453 85.5866 25.5506C85.9646 25.4626 86.3229 25.3069 86.6439 25.0911C86.9483 24.8811 87.2012 24.6063 87.384 24.2871C87.5831 23.9294 87.6817 23.5256 87.6695 23.1175C87.6633 22.7553 87.5767 22.3989 87.4157 22.0733C87.232 21.7223 86.9721 21.4156 86.6545 21.1753C86.2927 20.9038 85.8844 20.6986 85.4492 20.5696C84.9367 20.4084 84.401 20.3308 83.8633 20.3399H81.2095C80.9796 20.3399 80.759 20.4301 80.5965 20.5907C80.4339 20.7513 80.3425 20.9691 80.3425 21.1962L80.3531 24.8405Z" fill="white"/>
<path d="M95.8743 12.289V26.9081C95.8743 27.2404 95.7406 27.5592 95.5027 27.7942C95.2648 28.0292 94.942 28.1612 94.6056 28.1612H94.2038C93.8673 28.1612 93.5446 28.0292 93.3067 27.7942C93.0687 27.5592 92.9351 27.2404 92.9351 26.9081V12.289C92.935 11.9557 93.0684 11.6359 93.306 11.3992C93.5436 11.1625 93.8663 11.0282 94.2038 11.0255H94.6056C94.943 11.0282 95.2657 11.1625 95.5033 11.3992C95.741 11.6359 95.8743 11.9557 95.8743 12.289Z" fill="white"/>
<path d="M97.7662 21.9167C97.7613 21.0585 97.897 20.2051 98.168 19.3897C98.4136 18.6272 98.8048 17.9183 99.3204 17.3012C99.8346 16.6997 100.477 16.2183 101.202 15.8915C102.003 15.554 102.864 15.38 103.735 15.38C104.605 15.38 105.466 15.554 106.267 15.8915C106.992 16.2183 107.635 16.6997 108.149 17.3012C108.676 17.914 109.075 18.6238 109.322 19.3897C109.598 20.2039 109.734 21.0581 109.724 21.9167C109.732 22.7675 109.6 23.6138 109.333 24.4228C109.089 25.1883 108.694 25.8983 108.17 26.5113C107.651 27.1051 107.009 27.5822 106.288 27.9106C105.49 28.263 104.624 28.4377 103.75 28.4222C102.877 28.4401 102.01 28.2653 101.213 27.9106C100.51 27.5814 99.8866 27.1079 99.3839 26.5217C98.8597 25.9087 98.4644 25.1988 98.2209 24.4333C97.9315 23.6245 97.778 22.7744 97.7662 21.9167ZM100.705 21.9167C100.705 22.4493 100.776 22.9795 100.917 23.4935C101.039 23.9597 101.235 24.4038 101.498 24.8092C101.746 25.1713 102.075 25.4715 102.461 25.6864C102.844 25.9017 103.278 26.0134 103.719 26.0101C104.159 26.0119 104.593 25.9003 104.977 25.6864C105.363 25.4692 105.696 25.1696 105.95 24.8092C106.225 24.4194 106.429 23.9846 106.552 23.5248C106.828 22.4984 106.828 21.4185 106.552 20.3921C106.429 19.9291 106.225 19.4909 105.95 19.0973C105.69 18.7421 105.359 18.4436 104.977 18.2202C104.596 17.9983 104.161 17.8828 103.719 17.886C103.276 17.8812 102.841 17.9968 102.461 18.2202C102.08 18.441 101.752 18.7401 101.498 19.0973C101.231 19.4955 101.028 19.9323 100.896 20.3921C100.767 20.8902 100.703 21.4026 100.705 21.9167Z" fill="white"/>
<path d="M119.906 20.1102C119.706 20.102 119.512 20.0378 119.348 19.925C119.183 19.8123 119.054 19.6556 118.976 19.4732C118.826 19.0508 118.584 18.6658 118.268 18.3454C118.068 18.1611 117.834 18.018 117.578 17.9247C117.322 17.8315 117.049 17.7899 116.777 17.8024C116.349 17.794 115.927 17.9062 115.561 18.1261C115.205 18.3486 114.902 18.6443 114.673 18.9929C114.415 19.3758 114.225 19.7996 114.112 20.2459C113.984 20.7335 113.92 21.2354 113.922 21.7392C113.92 22.2745 113.988 22.808 114.123 23.3264C114.238 23.8144 114.427 24.2825 114.683 24.7152C114.91 25.0916 115.208 25.4214 115.561 25.6863C115.901 25.931 116.313 26.0594 116.735 26.0518C117.048 26.0546 117.357 25.9792 117.633 25.8325C117.907 25.6735 118.147 25.4644 118.342 25.2164C118.55 24.9404 118.721 24.6385 118.849 24.3184C118.849 24.1931 118.944 24.0678 118.976 23.932C119.044 23.7329 119.171 23.5585 119.341 23.4318C119.51 23.3052 119.715 23.232 119.928 23.222H120.985C121.138 23.2213 121.29 23.2558 121.427 23.3226C121.565 23.3895 121.685 23.4869 121.778 23.6073C121.872 23.7276 121.935 23.8677 121.964 24.0164C121.994 24.1651 121.988 24.3185 121.947 24.4646C121.855 24.786 121.738 25.1002 121.598 25.4044C121.312 26.015 120.919 26.5702 120.435 27.0438C119.956 27.5012 119.388 27.8566 118.765 28.088C118.086 28.3269 117.37 28.4471 116.65 28.4431C116.047 28.4494 115.447 28.3577 114.874 28.1716C114.362 28.0079 113.88 27.7647 113.446 27.4511C113.038 27.1385 112.681 26.7651 112.389 26.3442C112.081 25.9147 111.822 25.4523 111.617 24.9658C111.417 24.4589 111.264 23.9345 111.163 23.3995C111.066 22.8547 111.016 22.3027 111.015 21.7496C111.005 20.8825 111.148 20.0202 111.438 19.2017C111.692 18.4638 112.091 17.7826 112.611 17.1968C113.119 16.6367 113.743 16.1915 114.44 15.8915C115.198 15.5698 116.016 15.4096 116.84 15.4216C117.563 15.4045 118.281 15.5287 118.955 15.7871C119.546 16.0315 120.085 16.386 120.541 16.8313C120.975 17.2634 121.332 17.7647 121.598 18.3141C121.683 18.4916 121.767 18.6691 121.841 18.8467C121.898 18.9951 121.917 19.1549 121.897 19.3123C121.877 19.4697 121.819 19.62 121.727 19.7503C121.636 19.8807 121.514 19.9872 121.372 20.0608C121.23 20.1343 121.071 20.1728 120.911 20.1728L119.906 20.1102Z" fill="white"/>
<path d="M130.394 20.4339L132.72 24.308L133.914 26.292C134.027 26.4798 134.087 26.6932 134.091 26.9113C134.094 27.1294 134.039 27.3445 133.933 27.5354C133.826 27.7263 133.67 27.8864 133.482 27.9998C133.293 28.1132 133.078 28.176 132.857 28.182H132.487C132.272 28.1761 132.063 28.1165 131.878 28.0087C131.693 27.9009 131.539 27.7486 131.43 27.566L128.427 22.4701L127.888 23.0027C127.719 23.1698 127.571 23.316 127.444 23.4622C127.317 23.6083 127.148 23.765 127 23.9007V26.929C127 27.2613 126.866 27.58 126.628 27.815C126.39 28.05 126.068 28.182 125.731 28.182H125.329C124.993 28.182 124.67 28.05 124.432 27.815C124.194 27.58 124.061 27.2613 124.061 26.929V12.3098C124.061 11.9765 124.194 11.6567 124.432 11.4201C124.669 11.1834 124.992 11.0491 125.329 11.0463H125.731C126.069 11.0491 126.391 11.1834 126.629 11.4201C126.866 11.6567 127 11.9765 127 12.3098V20.2459L131.356 16.069C131.562 15.8367 131.848 15.6879 132.159 15.6514C132.4 15.66 132.634 15.7363 132.832 15.8713C133.031 16.0063 133.186 16.1943 133.281 16.4135C133.375 16.6326 133.404 16.8737 133.365 17.1086C133.325 17.3435 133.219 17.5625 133.058 17.7398L130.394 20.4339Z" fill="white"/>
<path d="M32.2893 22.8147V7.76746C32.2893 5.31354 30.2699 3.87251 27.9016 3.12067C27.4153 2.97447 21.2196 0.175954 20.617 0.0610891H20.5641C20.0259 -0.0369136 19.4724 -0.0168026 18.9429 0.119997C18.4134 0.256797 17.9209 0.506937 17.5002 0.852692C17.0795 1.19845 16.741 1.63135 16.5085 2.12074C16.2761 2.61012 16.1555 3.144 16.1553 3.68455V39.1882C16.1576 39.3303 16.197 39.4695 16.2698 39.5922C16.3426 39.7148 16.4462 39.8168 16.5707 39.8883C16.6952 39.9597 16.8362 39.9982 16.9802 39.9999C17.1241 40.0017 17.2661 39.9667 17.3923 39.8982C17.8046 39.679 26.9078 35.7213 28.8955 33.6329C32.9025 29.3516 32.2893 25.843 32.2893 22.8147ZM27.8276 26.4486C27.8311 27.6747 27.4095 28.865 26.6329 29.8215C25.7765 30.6882 20.765 33.163 20.617 33.3092V18.9407H27.8276V26.4486ZM27.8276 15.6409L20.617 15.5783V3.97693C22.6603 4.74985 24.6582 5.63535 26.6012 6.62926C26.955 6.8244 27.253 7.10486 27.4675 7.44448C27.6819 7.78411 27.8058 8.17183 27.8276 8.57152V15.6409Z" fill="white"/>
<path d="M16.8532 39.9922L16.3457 39.7938C15.3519 39.3866 14.4321 38.948 13.5651 38.5303C12.3175 37.9142 7.06284 35.2828 5.3712 33.6016C1.51214 29.7797 0.148249 25.8535 0.127103 22.8148L0.000229873 6.70238C-0.0039744 6.41589 0.0495299 6.13144 0.157632 5.86557C0.265733 5.59969 0.426275 5.35769 0.629922 5.15364C0.833569 4.94959 1.07626 4.78757 1.34387 4.67699C1.61149 4.56641 1.8987 4.50947 2.18879 4.5095H2.27338C2.55939 4.50813 2.84289 4.56241 3.10767 4.66925C3.37244 4.77608 3.61332 4.93338 3.81655 5.13216C4.01978 5.33094 4.18137 5.5673 4.29211 5.82776C4.40285 6.08822 4.46055 6.36768 4.46194 6.65016C4.46194 11.5789 4.57824 20.0893 4.62053 23.9738C4.62594 25.2145 4.92271 26.4369 5.4875 27.5451C6.26906 28.4821 7.14394 29.3392 8.09897 30.1034C8.09897 30.8762 7.92981 3.31909 7.92981 3.31909C7.93245 2.84145 8.09443 2.37799 8.39068 2.00045C8.68693 1.6229 9.10093 1.35234 9.56859 1.23064C9.89361 1.14647 10.2338 1.13661 10.5632 1.20182C10.8927 1.26702 11.2028 1.40558 11.4699 1.60694C11.7369 1.80831 11.954 2.06718 12.1046 2.36387C12.2551 2.66056 12.3352 2.98725 12.3387 3.31909L12.529 31.5131C12.529 32.5574 14.0832 33.4658 15.0241 33.894C15.0241 33.894 15.7959 34.2386 16.2189 34.3952L16.8532 39.9922Z" fill="white"/>
</g>
</svg>
