<svg width="110" height="30" viewBox="0 0 110 30" fill="none" xmlns="http://www.w3.org/2000/svg">
<g opacity="0.6">
<path d="M75.0522 9.14693V12.7628H72.2352V9.14693L68.3311 0.18161H71.2798L73.6355 6.02641L75.9911 0.18161H78.9563L75.0522 9.14693Z" fill="white"/>
<path d="M84.2118 12.9609C81.1642 12.9609 79.6157 11.3924 79.6157 9.09741V3.847C79.6157 1.5355 81.1642 0 84.2118 0C85.561 0.00556243 86.9068 0.138232 88.2313 0.396258L87.8853 2.87287C86.668 2.69905 85.4412 2.5998 84.2118 2.57567C82.8115 2.57567 82.4491 3.30215 82.4491 4.22675V8.6186C82.4099 8.8602 82.4283 9.10766 82.5028 9.34077C82.5772 9.57389 82.7056 9.78605 82.8775 9.95993C83.0494 10.1338 83.2599 10.2645 83.4918 10.3413C83.7236 10.4181 83.9704 10.4388 84.2118 10.4018C84.7624 10.4043 85.3127 10.3712 85.8591 10.3027V6.43918H88.5113V12.35C87.1024 12.7539 85.6442 12.9595 84.1788 12.9609" fill="white"/>
<path d="M74.5257 25.9879H72.3842V29.8018H69.5508V17.2207H74.674C77.738 17.2207 78.8582 18.426 78.8582 20.787V22.4381C78.8582 24.7991 77.5733 25.9879 74.5257 25.9879ZM76.0413 21.0347C76.0413 20.1431 75.7118 19.7138 74.5257 19.7138H72.3842V23.5113H74.5257C75.7777 23.5113 76.0413 23.049 76.0413 22.1409V21.0347Z" fill="white"/>
<path d="M80.5542 29.8018V17.2207H83.3876V27.2922H88.3625V29.8018H80.5542Z" fill="white"/>
<path d="M99.0537 17.2207V26.1365C99.0537 28.0517 97.8676 30 94.3258 30C90.7841 30 89.5815 28.0682 89.5815 26.1365V17.2207H92.4149V25.8723C92.4149 26.896 92.9091 27.5234 94.3258 27.5234C95.7426 27.5234 96.2203 26.9455 96.2203 25.8723V17.2207H99.0537Z" fill="white"/>
<path d="M105.083 30C103.69 30.0032 102.312 29.7224 101.031 29.1744L101.508 26.995C102.675 27.3728 103.891 27.5732 105.116 27.5894C106.566 27.5894 106.862 27.3087 106.862 26.252C106.862 25.1954 106.862 24.9807 104.737 24.601C101.706 23.9405 101.261 23.3296 101.261 20.6219C101.261 17.9141 102.151 17.1051 105.594 17.1051C106.873 17.1116 108.148 17.2499 109.399 17.5179L109.119 19.8129C107.969 19.5843 106.8 19.4627 105.627 19.4496C104.375 19.4496 104.095 19.6808 104.095 20.6054C104.095 21.8107 104.095 21.8437 106.121 22.2565C109.514 23.0655 109.679 23.7259 109.679 26.2025C109.679 28.6791 108.872 29.9339 105.083 29.9339" fill="white"/>
<path d="M0 0.03302V16.973L16.8851 0.03302H0Z" fill="white"/>
<path d="M29.7837 0.03302L0 29.9009H13.5246L29.7837 13.5883L46.0099 29.9009H59.5674V13.7699H50.7377V21.2823L38.3004 8.81673H59.5674V0.03302H29.7837Z" fill="white"/>
</g>
</svg>
