<svg width="250" height="88" viewBox="0 0 250 88" fill="none" xmlns="http://www.w3.org/2000/svg">
<path d="M126.913 26.937C126.913 23.3099 124.159 21.3569 120.893 21.3569H113.011V39.1107H117.041V33.0739H120.459C124.643 33.0739 126.912 30.2844 126.912 26.9366H126.913V26.937ZM122.704 27.1907C122.704 28.7125 121.709 29.7275 120.357 29.7275H117.016V24.7057H120.357C121.709 24.7057 122.704 25.5685 122.704 27.1918V27.1907ZM137.422 28.9915V25.0855H136.198C134.795 25.0855 133.443 25.6945 132.754 26.861V25.0855H128.954V39.111H132.882V31.6543C132.882 29.7013 134.029 28.9663 135.968 28.9663C136.504 28.9663 137.422 28.9915 137.422 28.9915ZM145.405 39.2885C149.487 39.2885 152.394 36.8535 152.394 32.111C152.394 27.343 149.487 24.908 145.405 24.908C141.349 24.908 138.442 27.343 138.442 32.111C138.442 36.8535 141.349 39.2885 145.405 39.2885ZM145.405 28.078C147.114 28.078 148.389 29.219 148.389 32.111C148.389 34.9768 147.114 36.1185 145.405 36.1185C143.747 36.1185 142.447 34.9775 142.447 32.111C142.447 29.22 143.747 28.078 145.405 28.078ZM162.087 39.0603V35.814C162.087 35.814 161.195 35.8903 160.378 35.8903C159.536 35.8903 159.282 35.6618 159.282 34.8001V28.2316H162.266V25.0869H159.282V21.3587H155.328V25.0869H153.287V28.2316H155.328V35.0031C155.328 37.6158 155.711 39.2136 159.001 39.2136C160.787 39.2136 162.087 39.0613 162.087 39.0613V39.0606V39.0603ZM170.25 39.2885C174.331 39.2885 177.239 36.8535 177.239 32.111C177.239 27.343 174.331 24.908 170.25 24.908C166.193 24.908 163.286 27.343 163.286 32.111C163.286 36.8535 166.193 39.2885 170.25 39.2885ZM170.25 28.078C171.959 28.078 173.233 29.219 173.233 32.111C173.233 34.9768 171.958 36.1185 170.25 36.1185C168.592 36.1185 167.291 34.9775 167.291 32.111C167.291 29.22 168.592 28.078 170.25 28.078ZM188.105 33.8099C187.85 35.4836 186.702 36.1182 185.452 36.1182C183.846 36.1182 182.57 34.9772 182.57 32.1107C182.57 29.2197 183.82 28.0776 185.503 28.0776C186.829 28.0776 187.85 28.7374 188.054 30.4622H192.008C191.677 26.7592 189.024 24.9077 185.479 24.9077C181.423 24.9077 178.516 27.4189 178.516 32.1614C178.516 36.9295 181.499 39.2881 185.556 39.2881C189.178 39.2881 191.627 37.4366 192.034 33.8099H188.105H188.105ZM200.144 39.2881C204.226 39.2881 207.133 36.8532 207.133 32.1107C207.133 27.3426 204.226 24.9077 200.144 24.9077C196.088 24.9077 193.181 27.3426 193.181 32.1107C193.181 36.8532 196.088 39.2881 200.144 39.2881ZM200.144 28.0776C201.853 28.0776 203.128 29.2186 203.128 32.1107C203.128 34.9765 201.853 36.1182 200.144 36.1182C198.486 36.1182 197.186 34.9772 197.186 32.1107C197.186 29.2197 198.486 28.0776 200.144 28.0776ZM212.975 39.1107V20.3426H209.046V39.1107H212.975ZM125.663 67.0092V63.5092H117.042V49.2554H113.012V67.0092H125.663ZM136.3 61.6321C136.3 62.8239 135.484 64.3453 133.163 64.3453C131.658 64.3453 131.25 63.4073 131.25 62.7728C131.25 61.8855 131.939 61.3273 132.882 61.1498C133.851 60.9468 136.3 60.6423 136.3 60.6423V61.6318L136.3 61.6321ZM127.679 57.5739H131.48C131.48 57.0156 131.633 55.8494 133.954 55.8494C135.842 55.8494 136.301 56.5092 136.301 57.4727V57.9547L131.659 58.6144C130.358 58.7922 127.221 59.5776 127.221 62.7742C127.221 65.5892 129.389 67.187 132.297 67.187C134.72 67.187 135.792 66.375 136.404 65.7415V67.0095H140.562C140.562 67.0095 140.256 65.9445 140.256 64.9298V57.3716C140.256 55.3426 139.133 52.8065 133.956 52.8065C128.6 52.8065 127.733 55.5197 127.682 57.5746H127.679L127.679 57.5739ZM146.732 67.0092V65.6396C147.447 66.5269 148.697 67.1866 150.252 67.1866C154.079 67.1866 156.705 64.7513 156.705 60.0088C156.705 55.2411 154.027 52.8058 150.482 52.8058C148.926 52.8058 147.447 53.4656 146.732 54.3528V48.2401H142.804V67.0081H146.732V67.0088V67.0092ZM149.716 55.9761C151.425 55.9761 152.701 57.1171 152.701 60.0088C152.701 62.8746 151.425 64.0163 149.716 64.0163C147.803 64.0163 146.758 63.1291 146.758 60.0088C146.758 56.8641 147.803 55.9761 149.716 55.9761ZM166.525 57.1423H170.377C170.377 56.0521 169.816 52.8051 164.306 52.8051C160.939 52.8051 158.26 54.3014 158.26 57.1924C158.26 60.4638 160.912 61.1491 163.948 61.5551L164.714 61.6566C165.811 61.8089 166.831 62.0374 166.831 62.8991C166.831 63.9134 165.735 64.3194 164.485 64.3194C163.133 64.3194 161.933 63.9134 161.933 62.5694H157.979C157.979 63.3051 158.311 67.1852 164.254 67.1852C169.534 67.1852 170.809 64.6232 170.809 62.4679C170.809 56.8119 162.187 59.0694 162.187 56.9134C162.187 55.9502 163.258 55.6454 164.254 55.6454C165.605 55.6454 166.524 56.1784 166.524 57.1416L166.525 57.1423H166.525ZM63.7133 57.2921C64.318 57.6393 64.809 58.4881 64.809 59.1793V71.1248C64.809 71.8196 64.3152 72.0996 63.7136 71.7548L53.3173 65.788C52.7129 65.4405 52.2219 64.5921 52.2219 63.9008V51.9553C52.2219 51.2606 52.7157 50.9806 53.3173 51.3253L63.7136 57.2918L63.7133 57.2921ZM79.7497 46.7543C79.7497 47.4491 79.2558 48.295 78.6539 48.6415L68.2534 54.6108C67.6486 54.9583 67.1579 54.6731 67.1579 53.9818V42.0398C67.1579 41.3451 67.6518 40.4988 68.2534 40.1523L78.6539 34.183C79.2586 33.8358 79.7497 34.1207 79.7497 34.812L79.7486 46.755L79.7497 46.7543ZM77.4652 30.8993C78.0805 31.2521 78.0847 31.8216 77.4828 32.1674L67.0766 38.1391C66.4712 38.4866 65.4803 38.4803 64.8678 38.1286L39.5671 23.6071C38.9518 23.2543 38.9476 22.6848 39.5502 22.3394L49.9571 16.3666C50.5625 16.0194 51.5534 16.0254 52.1659 16.3771L77.4652 30.9014L77.4641 30.9004L77.4649 30.8997L77.4652 30.8993ZM49.873 62.5463C49.873 63.2428 49.3791 63.5235 48.779 63.1781L38.3837 57.2116C37.7793 56.8641 37.29 56.0083 37.29 55.3059V26.2594C37.29 25.5534 37.7916 25.2689 38.4031 25.6206L63.6971 40.1379C64.3124 40.4904 64.8101 41.3437 64.8101 42.0349V53.9794C64.8101 54.6741 64.3131 54.9524 63.7119 54.6069L50.9719 47.2961C50.3647 46.9486 49.8737 47.2366 49.8737 47.9261V62.5449L49.873 62.5456V62.5463ZM82.0898 33.4708C82.0898 32.7743 82.5836 31.9273 83.1856 31.5818L93.5843 25.6126C94.1891 25.2654 94.6801 25.5594 94.6801 26.2618V55.3083C94.6801 56.0143 94.1785 56.8746 93.5667 57.2246L68.2731 71.7415C67.6578 72.0943 67.1601 71.8143 67.1601 71.1231V59.1776C67.1601 58.4828 67.6564 57.6341 68.2583 57.2893L80.9919 49.9813C81.5973 49.6338 82.0901 48.7808 82.0901 48.0903L82.0908 33.4697V33.4704H82.0901L82.0898 33.4708ZM69.4206 23.592C68.8152 23.2448 68.8187 22.6803 69.4206 22.3338L79.8247 16.3635C80.4294 16.0163 81.4139 16.0187 82.0159 16.3635L92.4199 22.3355C93.0247 22.6827 93.0218 23.2473 92.4199 23.5938L82.0166 29.5655C81.4118 29.9127 80.4273 29.9102 79.8254 29.5655L69.4213 23.5927H69.4206V23.5917V23.592Z" fill="white"/>
</svg>
