<svg width="250" height="88" viewBox="0 0 250 88" fill="none" xmlns="http://www.w3.org/2000/svg">
<path d="M100.93 40.2182L96.8214 54.3153C96.6577 54.8792 96.3144 55.375 95.8432 55.7281C95.3719 56.0812 94.7982 56.2725 94.2083 56.2732C93.604 56.2767 93.0161 56.0777 92.5392 55.7083C92.0624 55.339 91.7243 54.8207 91.5794 54.2369L86.2272 33.248C86.1429 32.9255 86.1341 32.588 86.2015 32.2616C86.2689 31.9352 86.4107 31.6285 86.6161 31.3652C86.8214 31.1019 87.0847 30.889 87.3857 30.7429C87.6867 30.5968 88.0175 30.5215 88.3524 30.5226C88.8436 30.5247 89.3202 30.6887 89.7076 30.9892C90.095 31.2896 90.3713 31.7095 90.4932 32.1829L93.736 45.1522C93.776 45.3025 93.8649 45.4355 93.9887 45.5303C94.1126 45.6252 94.2645 45.6766 94.4208 45.6766C94.5771 45.6766 94.729 45.6252 94.8528 45.5303C94.9767 45.4355 95.0655 45.3025 95.1055 45.1522L99.1512 32.0263C99.2836 31.5754 99.5591 31.1793 99.9364 30.897C100.314 30.6147 100.773 30.4614 101.245 30.46H102C102.472 30.4614 102.931 30.6147 103.309 30.897C103.686 31.1793 103.962 31.5754 104.094 32.0263L108.108 45.0269C108.148 45.1772 108.237 45.3102 108.361 45.405C108.485 45.4998 108.637 45.5513 108.793 45.5513C108.949 45.5513 109.101 45.4998 109.225 45.405C109.349 45.3102 109.438 45.1772 109.478 45.0269L112.799 32.1516C112.935 31.6969 113.216 31.2984 113.599 31.016C113.983 30.7336 114.447 30.5824 114.924 30.5853C115.251 30.5888 115.573 30.6651 115.866 30.8086C116.16 30.9521 116.417 31.1592 116.619 31.4146C116.822 31.67 116.964 31.9672 117.036 32.2845C117.107 32.6018 117.107 32.931 117.034 33.248L111.65 54.2369C111.505 54.8233 111.164 55.3436 110.684 55.7132C110.204 56.0829 109.612 56.2802 109.005 56.2732C108.418 56.2735 107.845 56.0844 107.374 55.7344C106.903 55.3843 106.559 54.8919 106.392 54.3309L102.284 40.2339C102.241 40.0894 102.153 39.9624 102.032 39.8715C101.911 39.7806 101.764 39.7307 101.613 39.7289C101.461 39.7271 101.313 39.7737 101.19 39.8618C101.068 39.9499 100.976 40.0748 100.93 40.2182Z" fill="white"/>
<path d="M122.937 48.05C123.004 48.7108 123.163 49.3591 123.409 49.9766C123.643 50.5427 123.962 51.0706 124.353 51.543C124.742 52.0105 125.218 52.3988 125.754 52.6864C126.299 52.9459 126.898 53.0696 127.502 53.0466C128.412 53.0488 129.296 52.7391 130.005 52.1695C130.561 51.7027 131.007 51.1198 131.311 50.4622C131.436 50.1849 131.64 49.9499 131.897 49.7858C132.154 49.6217 132.454 49.5356 132.759 49.538H133.515C133.789 49.5292 134.062 49.592 134.304 49.7201C134.547 49.8483 134.751 50.0373 134.898 50.2685C135.044 50.4997 135.127 50.765 135.139 51.038C135.15 51.3111 135.09 51.5823 134.963 51.8249C134.837 52.0598 134.696 52.3105 134.554 52.5298C134.04 53.3839 133.385 54.1463 132.618 54.7853C131.868 55.3826 131.022 55.8487 130.115 56.1637C129.217 56.4879 128.268 56.6523 127.313 56.6492C126.037 56.6728 124.775 56.3936 123.629 55.8347C122.562 55.3041 121.614 54.5634 120.843 53.6575C120.069 52.7284 119.472 51.6668 119.08 50.5248C118.662 49.2882 118.449 47.992 118.45 46.6873C118.45 45.4594 118.663 44.2407 119.08 43.0847C119.471 41.9661 120.069 40.9301 120.843 40.0304C121.646 39.1076 122.643 38.3723 123.764 37.8769C124.885 37.3814 126.102 37.138 127.329 37.164C128.551 37.1478 129.763 37.3879 130.886 37.8688C131.923 38.3143 132.852 38.9767 133.609 39.8111C134.377 40.6626 134.966 41.6586 135.341 42.7401C135.757 43.9119 135.965 45.1469 135.955 46.3897V46.515C135.955 46.9304 135.789 47.3288 135.494 47.6226C135.199 47.9163 134.798 48.0814 134.381 48.0814L122.937 48.05ZM130.319 44.7451C130.465 44.7446 130.609 44.7099 130.739 44.6438C130.869 44.5776 130.982 44.482 131.068 44.3645C131.153 44.247 131.21 44.111 131.233 43.9676C131.257 43.8242 131.245 43.6773 131.201 43.539C131.201 43.398 131.091 43.2727 131.028 43.1317C130.802 42.6711 130.499 42.2525 130.131 41.8943C129.751 41.5352 129.301 41.258 128.808 41.0798C128.275 40.8813 127.709 40.7805 127.14 40.7822C126.597 40.773 126.059 40.8855 125.565 41.1112C125.094 41.3076 124.666 41.5951 124.306 41.957C123.928 42.3162 123.619 42.7408 123.393 43.21C123.35 43.2852 123.313 43.3638 123.283 43.445C123.22 43.5846 123.194 43.7375 123.205 43.8899C123.217 44.0423 123.266 44.1896 123.349 44.3184C123.431 44.4472 123.545 44.5536 123.679 44.6281C123.813 44.7025 123.964 44.7427 124.117 44.7451H130.319Z" fill="white"/>
<path d="M139.245 31.8227C139.245 31.4806 139.38 31.1523 139.622 30.9089C139.864 30.6656 140.192 30.5268 140.536 30.5227H149.729C150.832 30.5052 151.929 30.6802 152.972 31.0396C153.866 31.3471 154.694 31.8201 155.412 32.4336C156.076 32.9933 156.613 33.6875 156.986 34.4698C157.343 35.2461 157.526 36.0908 157.521 36.9446C157.527 37.9974 157.273 39.0354 156.781 39.9677C156.241 40.9541 155.488 41.8097 154.577 42.4738C155.307 42.7644 155.987 43.166 156.592 43.6642C157.127 44.1137 157.588 44.6419 157.962 45.2306C158.279 45.7408 158.517 46.2951 158.67 46.8752C158.841 47.4872 158.926 48.1197 158.922 48.7548C158.928 49.7634 158.702 50.76 158.261 51.6682C157.815 52.5649 157.207 53.3721 156.466 54.049C155.627 54.7881 154.655 55.3621 153.601 55.7407C152.694 56.0726 151.734 56.2371 150.768 56.2262H140.489C140.146 56.2262 139.818 56.0909 139.576 55.8501C139.334 55.6092 139.198 55.2825 139.198 54.9418L139.245 31.8227ZM143.637 39.4978C143.637 39.8384 143.773 40.1651 144.015 40.406C144.257 40.6469 144.585 40.7822 144.928 40.7822H149.131C149.699 40.7889 150.265 40.6934 150.799 40.5002C151.29 40.3302 151.744 40.0698 152.137 39.7327C152.495 39.4122 152.784 39.0233 152.987 38.5893C153.178 38.1872 153.284 37.7509 153.301 37.3067C153.317 36.8625 153.242 36.4196 153.082 36.0048C152.933 35.6391 152.701 35.3122 152.405 35.0494C152.066 34.7607 151.669 34.5472 151.24 34.4228C150.73 34.2708 150.199 34.1969 149.666 34.2036H144.943C144.601 34.2036 144.273 34.3389 144.031 34.5798C143.789 34.8206 143.653 35.1473 143.653 35.488L143.637 39.4978ZM143.637 51.261C143.637 51.6016 143.773 51.9283 144.015 52.1692C144.257 52.41 144.585 52.5454 144.928 52.5454H149.76C150.324 52.5418 150.884 52.4681 151.429 52.3261C151.992 52.1941 152.525 51.9605 153.003 51.6369C153.456 51.3218 153.833 50.9097 154.105 50.4308C154.402 49.8943 154.548 49.2885 154.53 48.6765C154.521 48.1332 154.392 47.5985 154.152 47.1102C153.879 46.5836 153.492 46.1236 153.019 45.7631C152.48 45.3559 151.872 45.0481 151.224 44.8546C150.461 44.6128 149.664 44.4965 148.863 44.5101H144.912C144.57 44.5101 144.241 44.6454 143.999 44.8862C143.757 45.1271 143.621 45.4538 143.621 45.7944L143.637 51.261Z" fill="white"/>
<path d="M166.746 32.4334V54.3621C166.746 54.8606 166.547 55.3386 166.193 55.6911C165.839 56.0436 165.358 56.2417 164.857 56.2417H164.259C163.758 56.2417 163.278 56.0436 162.923 55.6911C162.569 55.3386 162.37 54.8606 162.37 54.3621V32.4334C162.37 31.9334 162.569 31.4537 162.922 31.0987C163.276 30.7437 163.757 30.5422 164.259 30.5381H164.857C165.36 30.5422 165.84 30.7437 166.194 31.0987C166.548 31.4537 166.746 31.9334 166.746 32.4334Z" fill="white"/>
<path d="M169.563 46.8748C169.556 45.5875 169.758 44.3074 170.161 43.0843C170.527 41.9406 171.109 40.8773 171.877 39.9516C172.643 39.0494 173.6 38.3272 174.679 37.8371C175.871 37.3308 177.153 37.0698 178.449 37.0698C179.745 37.0698 181.028 37.3308 182.22 37.8371C183.299 38.3272 184.256 39.0494 185.022 39.9516C185.806 40.8708 186.4 41.9355 186.769 43.0843C187.18 44.3056 187.382 45.5869 187.367 46.8748C187.378 48.151 187.182 49.4205 186.785 50.634C186.422 51.7822 185.833 52.8472 185.053 53.7667C184.28 54.6574 183.325 55.3731 182.251 55.8656C181.064 56.3942 179.774 56.6563 178.473 56.6331C177.172 56.6599 175.881 56.3977 174.695 55.8656C173.649 55.3719 172.72 54.6617 171.972 53.7824C171.191 52.8628 170.603 51.7979 170.24 50.6497C169.809 49.4365 169.581 48.1614 169.563 46.8748ZM173.939 46.8748C173.938 47.6736 174.044 48.4691 174.254 49.24C174.436 49.9393 174.728 50.6054 175.12 51.2136C175.489 51.7567 175.979 52.2071 176.553 52.5293C177.123 52.8523 177.769 53.0198 178.426 53.0149C179.082 53.0176 179.728 52.8503 180.299 52.5293C180.874 52.2036 181.369 51.7541 181.747 51.2136C182.158 50.6289 182.462 49.9767 182.645 49.287C183.056 47.7474 183.056 46.1276 182.645 44.588C182.462 43.8934 182.158 43.2361 181.747 42.6457C181.36 42.113 180.867 41.6651 180.299 41.33C179.732 40.9972 179.084 40.824 178.426 40.8288C177.767 40.8216 177.119 40.995 176.553 41.33C175.986 41.6612 175.497 42.11 175.12 42.6457C174.722 43.243 174.419 43.8982 174.223 44.588C174.03 45.335 173.935 46.1036 173.939 46.8748Z" fill="white"/>
<path d="M202.527 44.1651C202.229 44.1528 201.94 44.0565 201.695 43.8874C201.45 43.7182 201.258 43.4831 201.142 43.2096C200.918 42.576 200.558 41.9986 200.087 41.518C199.791 41.2414 199.442 41.0268 199.06 40.8869C198.679 40.747 198.273 40.6846 197.868 40.7035C197.23 40.6907 196.602 40.8592 196.057 41.189C195.528 41.5228 195.077 41.9662 194.735 42.4891C194.351 43.0635 194.069 43.6993 193.901 44.3687C193.71 45.1001 193.614 45.8529 193.617 46.6086C193.614 47.4116 193.715 48.2118 193.916 48.9894C194.088 49.7214 194.37 50.4236 194.751 51.0726C195.088 51.6373 195.532 52.1319 196.057 52.5293C196.564 52.8964 197.178 53.0889 197.805 53.0775C198.271 53.0818 198.732 52.9686 199.143 52.7486C199.55 52.5101 199.908 52.1965 200.197 51.8245C200.508 51.4104 200.762 50.9575 200.953 50.4774C200.953 50.2894 201.095 50.1015 201.142 49.8979C201.243 49.5991 201.432 49.3376 201.685 49.1476C201.938 48.9575 202.242 48.8478 202.559 48.8328H204.133C204.361 48.8318 204.587 48.8835 204.792 48.9838C204.997 49.0841 205.175 49.2302 205.314 49.4107C205.453 49.5913 205.548 49.8013 205.591 50.0244C205.635 50.2475 205.626 50.4776 205.565 50.6967C205.428 51.1788 205.254 51.6501 205.046 52.1064C204.621 53.0223 204.034 53.8552 203.314 54.5655C202.602 55.2516 201.755 55.7847 200.827 56.1319C199.817 56.4902 198.751 56.6704 197.679 56.6644C196.781 56.674 195.887 56.5364 195.034 56.2572C194.272 56.0117 193.555 55.6469 192.909 55.1764C192.301 54.7076 191.77 54.1474 191.335 53.5161C190.875 52.8718 190.49 52.1783 190.186 51.4485C189.887 50.6881 189.66 49.9015 189.509 49.099C189.364 48.2819 189.291 47.4539 189.288 46.6242C189.273 45.3235 189.486 44.0302 189.918 42.8024C190.297 41.6956 190.89 40.6737 191.665 39.795C192.421 38.9549 193.35 38.2871 194.389 37.8371C195.517 37.3544 196.734 37.1143 197.962 37.1322C199.038 37.1065 200.108 37.2928 201.11 37.6804C201.991 38.0471 202.793 38.5789 203.472 39.2468C204.118 39.8949 204.65 40.6469 205.046 41.471C205.172 41.7373 205.298 42.0035 205.408 42.2698C205.492 42.4925 205.52 42.7322 205.491 42.9683C205.461 43.2043 205.375 43.4297 205.239 43.6253C205.102 43.8208 204.921 43.9806 204.709 44.091C204.497 44.2013 204.262 44.259 204.023 44.2591L202.527 44.1651Z" fill="white"/>
<path d="M218.142 44.6507L221.605 50.4618L223.384 53.4378C223.551 53.7195 223.641 54.0397 223.646 54.3668C223.651 54.6939 223.57 55.0166 223.411 55.303C223.252 55.5893 223.02 55.8294 222.74 55.9995C222.459 56.1697 222.138 56.2639 221.809 56.2729H221.259C220.939 56.264 220.627 56.1745 220.352 56.0129C220.076 55.8513 219.847 55.6228 219.684 55.3488L215.214 47.7051L214.411 48.5039C214.159 48.7545 213.939 48.9738 213.75 49.1931C213.561 49.4124 213.309 49.6473 213.089 49.8509V54.3933C213.089 54.8918 212.89 55.3699 212.535 55.7224C212.181 56.0749 211.701 56.2729 211.2 56.2729H210.601C210.1 56.2729 209.62 56.0749 209.266 55.7224C208.911 55.3699 208.712 54.8918 208.712 54.3933V32.4646C208.712 31.9646 208.911 31.4849 209.265 31.13C209.619 30.775 210.099 30.5735 210.601 30.5693H211.2C211.702 30.5735 212.182 30.775 212.536 31.13C212.89 31.4849 213.089 31.9646 213.089 32.4646V44.3688L219.574 38.1034C219.882 37.7549 220.308 37.5317 220.771 37.4769C221.129 37.4899 221.477 37.6043 221.773 37.8068C222.068 38.0092 222.3 38.2913 222.44 38.62C222.581 38.9488 222.624 39.3105 222.565 39.6628C222.507 40.0151 222.348 40.3436 222.109 40.6096L218.142 44.6507Z" fill="white"/>
<path d="M72.0755 48.2221V25.6512C72.0755 21.9703 69.0688 19.8088 65.5427 18.681C64.8186 18.4617 55.594 14.2639 54.6967 14.0916H54.618C53.8166 13.9446 52.9926 13.9748 52.2042 14.18C51.4159 14.3852 50.6825 14.7604 50.0562 15.279C49.4298 15.7977 48.9257 16.447 48.5797 17.1811C48.2336 17.9152 48.0541 18.716 48.0537 19.5268V72.7823C48.0571 72.9955 48.1159 73.2043 48.2242 73.3883C48.3326 73.5723 48.4869 73.7253 48.6723 73.8324C48.8576 73.9396 49.0676 73.9973 49.2819 73.9999C49.4962 74.0025 49.7076 73.95 49.8955 73.8474C50.5094 73.5184 64.063 67.582 67.0224 64.4493C72.9885 58.0274 72.0755 52.7645 72.0755 48.2221ZM65.4325 53.673C65.4377 55.512 64.81 57.2975 63.6537 58.7322C62.3786 60.0323 54.9171 63.7445 54.6967 63.9638V42.411H65.4325V53.673ZM65.4325 37.4614L54.6967 37.3674V19.9654C57.739 21.1248 60.7136 22.453 63.6065 23.9439C64.1333 24.2366 64.577 24.6573 64.8964 25.1667C65.2157 25.6762 65.4001 26.2578 65.4325 26.8573V37.4614Z" fill="white"/>
<path d="M49.0926 73.9882L48.337 73.6906C46.8573 73.0798 45.4877 72.4219 44.1969 71.7954C42.3394 70.8712 34.5158 66.9241 31.9971 64.4023C26.2514 58.6695 24.2207 52.78 24.1892 48.222L24.0003 24.0534C23.9941 23.6237 24.0737 23.197 24.2347 22.7982C24.3956 22.3994 24.6347 22.0364 24.9379 21.7303C25.2411 21.4243 25.6024 21.1812 26.0009 21.0153C26.3993 20.8495 26.827 20.7641 27.2589 20.7641H27.3848C27.8107 20.7621 28.2327 20.8435 28.627 21.0037C29.0212 21.164 29.3798 21.3999 29.6824 21.6981C29.985 21.9963 30.2256 22.3508 30.3905 22.7415C30.5553 23.1322 30.6413 23.5514 30.6433 23.9751C30.6433 31.3682 30.8165 44.1339 30.8795 49.9606C30.8875 51.8216 31.3294 53.6553 32.1703 55.3175C33.3339 56.723 34.6365 58.0086 36.0585 59.155C36.0585 60.3141 35.8066 18.9785 35.8066 18.9785C35.8105 18.262 36.0517 17.5668 36.4928 17.0005C36.9339 16.4342 37.5503 16.0284 38.2466 15.8458C38.7305 15.7196 39.237 15.7048 39.7275 15.8026C40.218 15.9004 40.6797 16.1082 41.0773 16.4103C41.475 16.7123 41.7982 17.1006 42.0223 17.5457C42.2465 17.9907 42.3657 18.4807 42.3709 18.9785L42.6542 61.2696C42.6542 62.8359 44.9683 64.1986 46.3693 64.8408C46.3693 64.8408 47.5184 65.3577 48.1481 65.5927L49.0926 73.9882Z" fill="white"/>
</svg>
