<svg width="250" height="88" viewBox="0 0 250 88" fill="none" xmlns="http://www.w3.org/2000/svg">
<path d="M142.72 42.5415C142.592 44.3059 141.941 45.6948 140.767 46.7084C139.591 47.7219 138.043 48.2287 136.121 48.2287C134.017 48.2287 132.365 47.521 131.16 46.1058C129.956 44.6907 129.354 42.748 129.354 40.278V39.2757C129.354 37.6991 129.63 36.3102 130.186 35.109C130.742 33.9077 131.534 32.9861 132.567 32.3443C133.6 31.7023 134.799 31.3813 136.165 31.3813C138.059 31.3813 139.581 31.8881 140.737 32.9016C141.895 33.9153 142.561 35.3379 142.743 37.1698H139.363C139.281 36.1112 138.986 35.3436 138.479 34.8669C137.974 34.3901 137.203 34.1517 136.165 34.1517C135.04 34.1517 134.197 34.5553 133.638 35.3623C133.08 36.1694 132.79 37.4213 132.777 39.118V40.3568C132.777 42.1286 133.044 43.4237 133.582 44.2421C134.117 45.0604 134.966 45.4696 136.121 45.4696C137.164 45.4696 137.943 45.2312 138.459 44.7545C138.971 44.2777 139.266 43.5401 139.343 42.5415H142.72Z" fill="white"/>
<path d="M154.261 44.3997H148.339L147.211 47.7781H143.618L149.722 31.3813H152.854L158.991 47.7781H155.399L154.261 44.3997ZM149.251 41.6631H153.348L151.288 35.5256L149.251 41.6631Z" fill="white"/>
<path d="M163.888 42.001V47.7781H160.511V31.3813H166.907C168.137 31.3813 169.221 31.6066 170.156 32.057C171.089 32.5075 171.809 33.1476 172.312 33.9772C172.816 34.8067 173.068 35.7508 173.068 36.8094C173.068 38.4161 172.517 39.6829 171.417 40.6102C170.318 41.5374 168.796 42.001 166.851 42.001H163.888ZM163.888 39.2644H166.907C167.801 39.2644 168.481 39.0542 168.952 38.6338C169.421 38.2133 169.654 37.6128 169.654 36.832C169.654 36.0286 169.418 35.3792 168.944 34.8837C168.473 34.3882 167.819 34.1329 166.987 34.1179H163.888V39.2644Z" fill="white"/>
<path d="M178.905 31.3813H175.526V47.7781H178.905V31.3813Z" fill="white"/>
<path d="M194.138 34.1179H189.115V47.7781H185.737V34.1179H180.781V31.3813H194.138V34.1179Z" fill="white"/>
<path d="M203.812 44.3997H197.887L196.762 47.7781H193.169L199.274 31.3813H202.403L208.54 47.7781H204.95L203.812 44.3997ZM198.8 41.6631H202.9L200.839 35.5256L198.8 41.6631Z" fill="white"/>
<path d="M213.442 45.064H220.614V47.7781H210.062V31.3813H213.442V45.064Z" fill="white"/>
<path d="M37.5253 56.2371H56.1696V62.3588H28V57.8882L46.2887 31.5474H28.0254V25.375H55.7632V29.7439L37.5253 56.2371Z" fill="white"/>
<path d="M61.0337 62.3588V25.375H73.9885C78.4757 25.375 81.8788 26.2344 84.2006 27.9532C86.5198 29.672 87.6806 32.1909 87.6806 35.51C87.6806 37.3219 87.2142 38.9179 86.2814 40.298C85.3512 41.6782 84.0545 42.69 82.3965 43.3335C84.2928 43.8076 85.7868 44.7644 86.8785 46.2038C87.9702 47.6431 88.5186 49.4043 88.5186 51.4872C88.5186 55.0433 87.3834 57.7358 85.1129 59.5647C82.8449 61.3936 79.6109 62.3249 75.4108 62.3588H61.0337ZM68.6542 46.2546V56.2371H75.1827C76.9765 56.2371 78.3783 55.8096 79.3854 54.9544C80.3925 54.0993 80.8974 52.9181 80.8974 51.411C80.8974 48.0242 79.1445 46.3054 75.6389 46.2546H68.6542ZM68.6542 40.8696H74.2935C78.1374 40.8018 80.0594 39.2693 80.0594 36.272C80.0594 34.5955 79.5725 33.389 78.5987 32.6524C77.6249 31.9157 76.0873 31.5474 73.9885 31.5474H68.6542V40.8696Z" fill="white"/>
<path d="M113.293 52.7888C113.293 51.3494 112.785 50.2444 111.768 49.4739C110.753 48.7034 108.924 47.8906 106.282 47.0354C103.642 46.1803 101.548 45.3378 100.008 44.508C95.8081 42.2389 93.7093 39.1823 93.7093 35.3382C93.7093 33.34 94.2731 31.5577 95.3981 29.9913C96.5231 28.4249 98.1427 27.2014 100.249 26.3208C102.358 25.4403 104.723 25 107.35 25C109.992 25 112.345 25.4784 114.41 26.4352C116.476 27.392 118.082 28.7424 119.225 30.4867C120.368 32.2309 120.94 34.2121 120.94 36.4305H113.319C113.319 34.7371 112.786 33.4205 111.719 32.4806C110.651 31.5408 109.152 31.0709 107.222 31.0709C105.359 31.0709 103.911 31.4646 102.878 32.252C101.846 33.0395 101.328 34.0767 101.328 35.3637C101.328 36.5659 101.935 37.5735 103.145 38.3864C104.357 39.1992 106.138 39.9613 108.493 40.6725C112.827 41.9764 115.986 43.5936 117.967 45.5241C119.948 47.4546 120.94 49.8592 120.94 52.738C120.94 55.9385 119.728 58.449 117.306 60.2694C114.884 62.0898 111.625 63 107.527 63C104.682 63 102.092 62.4793 99.7546 61.4378C97.4175 60.3964 95.6364 58.9697 94.4064 57.1577C93.1789 55.3459 92.5664 53.246 92.5664 50.8583H100.211C100.211 54.9394 102.65 56.98 107.527 56.98C109.339 56.98 110.753 56.6117 111.768 55.875C112.785 55.1384 113.293 54.1096 113.293 52.7888Z" fill="white"/>
<path d="M128.044 51.6523H221.323V55.4962H128.044V51.6523Z" fill="white"/>
</svg>
