<svg width="40" height="40" viewBox="0 0 40 40" fill="none" xmlns="http://www.w3.org/2000/svg">
<path fill-rule="evenodd" clip-rule="evenodd" d="M5 5H35V35H5V5ZM11.905 14.3748C12.0897 14.5413 12.1841 14.7858 12.159 15.0332V23.9409C12.2139 24.2622 12.1126 24.5905 11.8862 24.8251L9.76919 27.393V27.7316H15.7721V27.393L13.6551 24.8251C13.427 24.5909 13.3195 24.2648 13.3634 23.9409V16.2372L18.6324 27.7316H19.2439L23.7696 16.2372V25.3989C23.7696 25.6434 23.7696 25.6905 23.6097 25.8504L21.9819 27.4306V27.7692H29.8854V27.4306L28.3141 25.888C28.1754 25.7823 28.1066 25.6085 28.1353 25.4365V14.102C28.1066 13.93 28.1754 13.7562 28.3141 13.6505L29.923 12.1079V11.7692H24.353L20.3824 21.674L15.8661 11.7692H10.0232V12.1079L11.905 14.3748Z" fill="white"/>
</svg>
