<svg width="250" height="88" viewBox="0 0 250 88" fill="none" xmlns="http://www.w3.org/2000/svg">
<g clip-path="url(#clip0_1721_1745)">
<path d="M50.9971 65.9259V19.7981L47.8841 16.1191L41.3753 16.4021L32.0365 20.93L32.6025 25.7409L27.7916 26.5899L22.9807 40.4566L25.5277 43.0035L22.6978 45.8334L25.8107 52.3423L37.1304 51.4933" stroke="white" stroke-width="2.26395" stroke-linecap="round" stroke-linejoin="round"/>
<path d="M50.997 65.9259L47.6011 71.5858L45.0542 71.0198L41.9413 71.5858L37.1304 69.3219L50.997 48.3804" stroke="white" stroke-width="2.26395" stroke-linecap="round" stroke-linejoin="round"/>
<path d="M37.6966 51.4937L28.9238 57.7195L35.1497 64.7943L47.6014 71.5862" stroke="white" stroke-width="2.26395" stroke-linecap="round" stroke-linejoin="round"/>
<path d="M26.0938 52.6255L31.4706 55.4554" stroke="white" stroke-width="2.26395" stroke-linecap="round" stroke-linejoin="round"/>
<path d="M25.2446 43.0034L45.9031 55.4551L50.997 61.964" stroke="white" stroke-width="2.26395" stroke-linecap="round" stroke-linejoin="round"/>
<path d="M50.7143 65.9258L39.3945 66.4918" stroke="white" stroke-width="2.26395" stroke-linecap="round" stroke-linejoin="round"/>
<path d="M32.6025 25.458L37.4134 34.2308L38.5454 43.0036L38.2624 65.926" stroke="white" stroke-width="2.26395" stroke-linecap="round" stroke-linejoin="round"/>
<path d="M25.2446 43.0038L37.1303 33.948L50.431 27.7222" stroke="white" stroke-width="2.26395" stroke-linecap="round" stroke-linejoin="round"/>
<path d="M25.5273 42.4374L32.6022 26.0238L44.2049 16.6851" stroke="white" stroke-width="2.26395" stroke-linecap="round" stroke-linejoin="round"/>
<path d="M32.6025 25.7412L45.6202 29.9861L50.9971 33.382" stroke="white" stroke-width="2.26395" stroke-linecap="round" stroke-linejoin="round"/>
<path d="M25.8105 42.7203H38.2622L45.9031 30.2686L48.45 17.8169" stroke="white" stroke-width="2.26395" stroke-linecap="round" stroke-linejoin="round"/>
<path d="M50.7146 39.8906L38.5459 43.0035L46.1867 55.1723L47.0357 65.926" stroke="white" stroke-width="2.26395" stroke-linecap="round" stroke-linejoin="round"/>
<path d="M51.4526 66.209H54.2209" stroke="white" stroke-width="2.26395" stroke-linejoin="round"/>
<path d="M51.4526 61.6812H54.2209" stroke="white" stroke-width="2.26395" stroke-linejoin="round"/>
<path d="M51.4526 48.9463H54.2209" stroke="white" stroke-width="2.26395" stroke-linejoin="round"/>
<path d="M51.4526 39.8911H54.2209" stroke="white" stroke-width="2.26395" stroke-linejoin="round"/>
<path d="M51.4526 33.3823H54.2209" stroke="white" stroke-width="2.26395" stroke-linejoin="round"/>
<path d="M51.4526 27.7222H54.2209" stroke="white" stroke-width="2.26395" stroke-linejoin="round"/>
<path d="M54.395 66.0464V19.8339L57.5122 16.1479L64.0307 16.4309L73.3822 20.9679L72.8162 25.7875L77.6339 26.6379L82.4518 40.5301L79.9012 43.0815L82.7351 45.9169L79.6176 52.4376L68.2818 51.5869" stroke="white" stroke-width="2.26395" stroke-linecap="round" stroke-linejoin="round"/>
<path d="M54.395 66.0461L57.7957 71.7162L60.3464 71.1502L63.4638 71.7162L68.2815 69.4482L54.395 48.4683" stroke="white" stroke-width="2.26395" stroke-linecap="round" stroke-linejoin="round"/>
<path d="M67.7143 51.5869L76.4998 57.8244L70.2649 64.9119L57.7954 71.7162" stroke="white" stroke-width="2.26395" stroke-linecap="round" stroke-linejoin="round"/>
<path d="M79.3337 52.7212L73.9492 55.5562" stroke="white" stroke-width="2.26395" stroke-linecap="round" stroke-linejoin="round"/>
<path d="M80.1842 43.0815L59.4974 55.5562L54.395 62.0775" stroke="white" stroke-width="2.26395" stroke-linecap="round" stroke-linejoin="round"/>
<path d="M54.6782 66.0464L66.0144 66.6124" stroke="white" stroke-width="2.26395" stroke-linecap="round" stroke-linejoin="round"/>
<path d="M72.8164 25.5044L67.9984 34.2933L66.8647 43.0822L67.1477 66.0468" stroke="white" stroke-width="2.26395" stroke-linecap="round" stroke-linejoin="round"/>
<path d="M80.1843 43.0818L68.2816 34.0096L54.9619 27.7725" stroke="white" stroke-width="2.26395" stroke-linecap="round" stroke-linejoin="round"/>
<path d="M79.9007 42.5149L72.816 26.071L61.1963 16.7139" stroke="white" stroke-width="2.26395" stroke-linecap="round" stroke-linejoin="round"/>
<path d="M72.8162 25.7876L59.7795 30.0401L54.395 33.4423" stroke="white" stroke-width="2.26395" stroke-linecap="round" stroke-linejoin="round"/>
<path d="M79.6175 42.7984H67.148L59.4964 30.3237L56.9458 17.8491" stroke="white" stroke-width="2.26395" stroke-linecap="round" stroke-linejoin="round"/>
<path d="M54.6782 39.9629L66.8645 43.0815L59.2126 55.2725L58.3636 66.0461" stroke="white" stroke-width="2.26395" stroke-linecap="round" stroke-linejoin="round"/>
<path fill-rule="evenodd" clip-rule="evenodd" d="M106.927 64.1298V45.5853H102.277V52.8333H94.9462V45.5853H90.2969V64.1298H94.9462V56.6899H102.276V64.1298H106.925H106.927ZM128.89 54.8575C128.89 50.0981 125.664 45.1475 118.962 45.1475C112.259 45.1475 109.033 50.0981 109.033 54.8575C109.033 59.6169 112.26 64.5679 118.962 64.5679C125.663 64.5679 128.89 59.6155 128.89 54.8575ZM124.131 54.8575C124.131 57.9755 122.435 60.7381 118.962 60.7381C115.488 60.7381 113.792 57.9755 113.792 54.8575C113.792 51.7395 115.488 48.9495 118.962 48.9495C122.435 48.9495 124.131 51.7392 124.131 54.8575ZM144.535 64.1298V60.2457H135.646V45.5867H130.996V64.1312H144.535L144.535 64.1298ZM163.435 54.7763C163.435 51.9317 162.423 49.4427 160.481 47.7468C158.129 45.6953 154.983 45.5861 151.865 45.5861H145.82V64.1306H151.865C154.19 64.1306 157.719 64.1306 160.481 61.7235C162.396 60.0544 163.435 57.5927 163.435 54.7763ZM158.676 54.7763C158.676 56.446 158.211 58.0038 157.172 59.0158C155.886 60.3012 154.272 60.3561 152.576 60.3561H150.469V49.3324H152.575C154.299 49.3324 155.995 49.3324 157.171 50.5085C158.293 51.63 158.676 53.2164 158.676 54.7763H158.676ZM170.191 64.1306V45.5861H165.541V64.1306H170.191ZM189.747 64.1306V45.5861H185.398V56.937L177.74 45.5861H173.117V64.1306H177.467V52.7787L185.126 64.1298H189.748L189.747 64.1306ZM210.37 64.1306V53.4624H201.754V57.0182H206.568C206.568 59.5085 204.298 60.7381 201.946 60.7381C198.609 60.7381 196.585 58.1397 196.585 54.8301C196.585 51.7392 198.417 48.9769 202.055 48.9769C202.925 48.9742 203.787 49.1499 204.587 49.4933C205.387 49.8367 206.107 50.3405 206.705 50.9734L209.413 48.2658C209.057 47.828 206.76 45.1475 201.891 45.1475C195.354 45.1475 191.853 49.6332 191.853 54.8847C191.853 60.1636 195.19 64.5673 201.125 64.5673C204.654 64.5673 206.705 62.598 206.841 62.4067L206.896 64.1298H210.37L210.37 64.1306ZM228.203 58.6329C228.203 50.564 216.742 53.901 216.742 50.6189C216.742 49.5794 217.837 48.8683 219.806 48.8683C223.334 48.8683 225.276 50.7009 225.44 50.8376L228.011 47.8834C227.683 47.5554 225.413 45.1483 219.833 45.1483C215.21 45.1483 212.147 47.4734 212.147 50.8365C212.147 58.4948 223.552 55.4863 223.552 58.878C223.552 60.1908 222.102 60.7653 219.941 60.7653C217.821 60.799 215.758 60.082 214.115 58.741L211.653 61.8865C211.981 62.2148 214.58 64.567 219.941 64.567C224.62 64.5679 228.203 62.4613 228.203 58.6321V58.6329Z" fill="white"/>
<path fill-rule="evenodd" clip-rule="evenodd" d="M105.643 35.9576C105.643 33.9712 104.606 32.1575 102.015 31.4953C102.591 31.2361 104.894 30.1423 104.894 26.889C104.914 25.6856 104.471 24.5204 103.656 23.6346C102.159 22.0801 99.7985 22.0801 97.294 22.0801H90.3262V41.5987H97.0914C99.9992 41.5987 102.792 41.5124 104.404 39.5258C105.213 38.5129 105.65 37.2536 105.643 35.9576ZM102.475 27.3769C102.475 30.4287 99.884 30.6596 97.551 30.6596H92.7155V24.1239H97.3795C99.6536 24.1239 102.475 24.1239 102.475 27.3769ZM103.137 35.985C103.137 39.7276 99.5673 39.5261 96.8325 39.5261H92.7155V32.6748H97.4947C100.345 32.6748 103.137 32.8469 103.137 35.9859V35.985ZM111.687 41.599V22.0799H109.269V41.5987H111.687V41.599ZM133.28 41.599V31.321H124.786V33.4514H131.091V34.0273C131.091 35.985 129.911 39.8714 124.844 39.8714C119.806 39.8714 117.848 36.0999 117.848 31.8392C117.848 27.6647 120.123 23.807 125.017 23.807C128.99 23.807 130.803 26.2251 131.062 26.5132L132.704 25.1314C132.444 24.7284 130.285 21.6191 125.017 21.6191C118.827 21.6191 115.315 26.1102 115.315 31.8106C115.315 37.7413 118.511 42.0595 124.47 42.0595C129.335 42.0595 130.919 39.3821 131.177 38.9791L131.233 41.599H133.277H133.28Z" fill="white"/>
<path fill-rule="evenodd" clip-rule="evenodd" d="M163.322 35.9578C163.322 33.9715 162.285 32.1578 159.694 31.4955C160.27 31.2363 162.573 30.1426 162.573 26.8893C162.593 25.6858 162.15 24.5206 161.335 23.6348C159.838 22.0804 157.477 22.0804 154.973 22.0804H148.006V41.599H154.771C157.679 41.599 160.472 41.5127 162.084 39.526C162.892 38.513 163.329 37.2537 163.322 35.9578ZM160.155 27.3771C160.155 30.4289 157.564 30.6599 155.231 30.6599H150.395V24.1241H155.059C157.333 24.1241 160.155 24.1241 160.155 27.3771ZM160.817 35.9852C160.817 39.7278 157.247 39.5263 154.512 39.5263H150.395V32.6751H155.174C158.026 32.6751 160.817 32.8471 160.817 35.9861V35.9852ZM182.898 41.599L176.824 33.2224C177.169 33.1361 181.804 32.3587 181.804 27.6372C181.815 26.9161 181.68 26.2002 181.408 25.5324C181.136 24.8645 180.732 24.2585 180.22 23.7506C178.665 22.1961 176.419 22.0809 173.944 22.0809H166.949V41.599H169.367V33.4516H174.175L180.019 41.599H182.898ZM179.386 27.751C179.386 31.2346 176.161 31.4361 173.254 31.4361H169.367V24.0953H173.455C175.298 24.0953 177.313 24.1236 178.521 25.3331C179.098 25.909 179.386 26.6575 179.386 27.751ZM202.704 41.5987L194.587 22.0801H191.708L183.589 41.599H186.151L188.253 36.4168H197.955L200.057 41.599H202.705L202.704 41.5987ZM197.12 34.3447H189.117L193.117 24.4983L197.12 34.3447ZM207.714 41.5995V22.0801H205.296V41.599H207.714V41.5995ZM228.212 41.5995V22.0801H225.966V37.7123L214.681 22.0801H212.205V41.599H214.45V25.8227L225.851 41.5993H228.212V41.5995Z" fill="white"/>
</g>
<defs>
<clipPath id="clip0_1721_1745">
<rect width="208" height="59.1456" fill="white" transform="translate(21 14.4219)"/>
</clipPath>
</defs>
</svg>
