<svg width="250" height="88" viewBox="0 0 250 88" fill="none" xmlns="http://www.w3.org/2000/svg">
<path d="M59.9068 24.3047C63.0833 24.1669 66.2646 24.2464 69.4462 24.2519C65.9304 37.5152 62.399 50.7791 58.9364 64.0533C55.8184 64.1539 52.7006 64.1059 49.5825 64.085C52.9603 50.8108 56.6192 37.6052 59.9068 24.3047Z" fill="white"/>
<path d="M30.3496 29.515C33.494 29.4833 36.6384 29.5044 39.7828 29.499C36.856 41.0472 33.6901 52.5371 30.6837 64.0693C27.5868 64.1539 24.4848 64.0853 21.3828 64.1007C24.2514 52.5422 27.4703 41.0738 30.3496 29.515Z" fill="white"/>
<path d="M84.6121 58.5353C87.5337 58.5459 90.4608 58.5936 93.3879 58.5514C95.6945 58.5299 98.3407 57.5347 99.115 55.1571C99.9473 53.5423 99.3641 51.2019 97.4285 50.7624C93.9076 50.0903 90.3019 50.4077 86.7383 50.265C85.9166 52.9917 85.3812 55.7926 84.6121 58.5353ZM89.7662 38.1289C89.13 40.4906 88.4777 42.8521 88.0694 45.2666C91.2829 45.2348 94.5229 45.489 97.7043 45.0018C100.398 44.6787 102.148 41.5812 101.119 39.0928C97.5611 37.4566 93.5365 38.4572 89.7662 38.1289ZM84.3733 33.2206C90.2063 33.1042 96.0553 33.0248 101.883 33.3106C104.736 33.3267 107.62 35.344 107.976 38.2825C108.405 42.2643 105.33 45.7961 101.851 47.3102C103.399 48.4486 105.568 49.4282 105.849 51.5567C106.989 57.5769 101.315 63.195 95.4984 63.4703C89.3155 63.6078 83.1433 63.8251 76.9658 63.5813C79.3254 53.4365 82.0933 43.3867 84.3733 33.2206Z" fill="white"/>
<path d="M116.682 33.168C118.745 33.1414 120.807 33.1096 122.87 33.152C122.419 34.9417 121.958 36.7315 121.523 38.5209C119.471 38.5581 117.419 38.5581 115.362 38.5475C115.818 36.7578 116.247 34.9628 116.682 33.1679" fill="white"/>
<path d="M140.953 33.1626C143.174 33.1149 145.396 33.1203 147.618 33.168C147.767 40.104 146.95 47.0192 147.268 53.9607C150.476 48.5333 153.705 43.1169 156.903 37.6896C157.804 36.403 157.401 34.7774 157.46 33.3161C159.634 33.3056 161.808 33.3004 163.982 33.3056C164.167 37.6101 164.899 41.8621 165.297 46.1455C165.705 48.8352 165.769 51.5728 166.373 54.2308C169.773 47.2096 173.066 40.1358 176.501 33.136C178.66 33.136 180.823 33.1309 182.987 33.168C177.859 43.2652 172.768 53.3836 167.747 63.5287C165.366 63.5444 162.985 63.7719 160.615 63.5021C160.233 57.8366 159.459 52.1868 158.753 46.5586C158.669 46.5054 158.494 46.3996 158.403 46.3522C155.073 52.1234 151.473 57.7411 148.18 63.5393C145.783 63.7719 143.381 63.6979 140.99 63.5498C141.006 53.4206 141.011 43.2916 140.953 33.1626Z" fill="white"/>
<path d="M211.058 33.1575C213.105 33.1203 215.152 33.1152 217.199 33.1414C214.807 43.3076 212.119 53.3943 209.717 63.5553C207.691 63.5976 205.66 63.6028 203.635 63.5658C205.878 53.3734 208.72 43.3236 211.058 33.1575Z" fill="white"/>
<path d="M223.578 33.1157C225.593 33.1421 227.603 33.1369 229.618 33.1369C227.29 43.2659 224.339 53.6701 222.117 63.8206C218.803 63.9361 218.541 63.7227 215.948 63.8206C218.408 53.5644 220.959 43.3294 223.578 33.1157Z" fill="white"/>
<path d="M129.493 36.6256C131.46 35.6355 133.481 34.746 135.411 33.687C134.87 36.3345 134.016 38.9182 133.703 41.6134C135.034 41.5974 136.37 41.6134 137.707 41.624C137.304 43.1224 136.927 44.6208 136.572 46.1298C135.177 46.3205 133.767 46.3629 132.362 46.2782C130.84 52.1238 129.387 57.9851 127.955 63.8464C126.009 63.7989 124.068 63.6505 122.127 63.5393C123.103 57.7466 124.864 52.1132 126.142 46.3788C125.224 46.2837 124.312 46.1987 123.395 46.135C123.755 44.626 124.111 43.117 124.466 41.6079C125.426 41.6079 126.38 41.6079 127.34 41.6134C127.982 39.9666 127.589 37.4463 129.493 36.6256Z" fill="white"/>
<path d="M43.134 34.6235C46.2521 34.3163 49.3965 34.5545 52.5197 34.5282C49.9427 44.3819 47.3549 54.2355 44.7409 64.0786C41.6228 64.1155 38.5102 64.1264 35.3921 64.0735C38.0328 54.2724 40.4351 44.403 43.134 34.6235Z" fill="white"/>
<path d="M186.369 50.6457C189.519 50.6989 192.669 50.6829 195.824 50.6563C195.946 48.9357 195.94 46.5688 194 45.8543C190.595 44.4825 187.223 47.4793 186.369 50.6457ZM185.595 43.4873C189.031 40.9879 193.814 40.2254 197.754 41.9517C199.695 42.7988 201.031 44.6626 201.46 46.7011C202.171 49.2479 201.317 51.848 200.893 54.3576C195.712 54.3525 190.526 54.3365 185.34 54.3679C185.181 56.2743 185.234 58.5298 187.265 59.4407C190.118 60.2827 193.236 59.8958 195.946 58.6888C197.001 58.1381 198.173 58.191 199.308 58.4609C196.927 62.0564 192.568 64.2007 188.283 64.1423C185.865 64.1898 183.235 63.867 181.369 62.1834C179.402 60.4837 178.86 57.7039 179.142 55.2259C179.645 50.6935 181.724 46.0976 185.595 43.4873Z" fill="white"/>
<path d="M114.56 41.645C116.618 41.5972 118.675 41.5972 120.733 41.5972C118.967 48.936 117.095 56.248 115.292 63.576C113.288 63.592 111.283 63.5975 109.284 63.5975C110.801 56.2269 112.895 48.9835 114.56 41.645Z" fill="white"/>
</svg>
