<svg width="250" height="88" viewBox="0 0 250 88" fill="none" xmlns="http://www.w3.org/2000/svg">
<g clip-path="url(#clip0_613_573)">
<path d="M63.7339 33.4941C63.2782 34.4177 62.8225 35.3412 62.1389 36.034C61.4554 36.7266 60.7719 37.1884 59.8605 37.6502C58.9491 38.112 58.0378 38.3429 56.8985 38.3429C55.7593 38.3429 54.8479 38.112 53.9365 37.6502C53.0252 37.1884 52.3416 36.7266 51.6581 36.034C50.9745 35.3412 50.5189 34.4177 50.0632 33.4941C49.8353 32.5705 49.6075 31.416 49.6075 30.2616C49.6075 29.1071 49.8353 28.1835 50.0632 27.029C50.5189 26.1055 50.9745 25.4128 51.6581 24.7201C52.3416 24.0274 53.0252 23.5656 53.9365 23.1038C54.8479 22.642 55.7593 22.4111 56.8985 22.4111C58.0378 22.4111 58.9491 22.642 59.8605 23.1038C60.7719 23.5656 61.4554 24.0274 62.1389 24.7201C62.8225 25.4128 63.2782 26.3364 63.7339 27.2599C63.9617 28.1835 64.1896 29.1071 64.1896 30.2616C64.1896 31.416 63.9617 32.5705 63.7339 33.4941ZM66.9237 20.3331C65.5566 19.1786 64.1896 18.255 62.3668 17.7932C60.7719 17.1005 58.9491 16.8696 56.8985 16.8696C54.8479 16.8696 53.0252 17.1005 51.4303 17.7932C49.6075 18.255 48.2404 19.1786 46.8734 20.3331C45.7341 21.4875 44.8228 23.1038 43.9114 24.7201C43 26.3363 43 28.1835 43 30.2616C43 32.3396 43.4557 34.1868 44.1392 35.8031C44.8228 37.4193 45.7341 39.0356 47.1012 40.19C48.2404 41.3446 49.8353 42.2681 51.4303 42.9608C53.0252 43.6535 55.0758 43.8844 56.8985 43.8844C58.9491 43.8844 60.7719 43.6535 62.3668 42.9608C63.9617 42.2681 65.5566 41.3446 66.6958 40.19C67.835 39.0356 68.9743 37.4193 69.6578 35.8031C70.3414 34.1868 70.797 32.3396 70.797 30.2616C70.797 28.1835 70.3414 26.3363 69.6578 24.7201C68.9743 23.1038 68.0629 21.4875 66.9237 20.3331Z" fill="white"/>
<path d="M85.6072 34.8797C85.6072 36.0342 85.3793 36.9578 84.6958 37.6505C84.2401 38.3432 83.3288 38.805 82.4174 38.805C81.9617 38.805 81.506 38.805 81.0503 38.5741C80.8225 38.3432 80.3668 38.1123 80.1389 37.6505C79.9111 37.1887 79.6832 36.9578 79.6832 36.496C79.6832 36.0342 79.6832 35.5724 79.6832 35.1106V25.1821H73.7593V36.496C73.7593 37.4196 73.9871 38.3432 74.215 39.2668C74.4428 40.1903 74.8985 40.883 75.3542 41.5757C75.8099 42.2684 76.4934 42.7302 77.4048 43.192C78.3162 43.6538 79.2275 43.8847 80.3668 43.8847C81.0503 43.8847 81.506 43.8847 82.1895 43.6538C82.6452 43.4229 83.3288 43.192 83.7844 42.9611C84.2401 42.7302 84.6958 42.2684 84.9237 42.0375C85.3793 41.5757 85.6072 41.3448 85.835 40.883V43.4229H91.5312V25.1821H85.6072V34.8797Z" fill="white"/>
<path d="M102.467 20.333H96.543V25.1818H93.8086V29.5688H96.7707V37.1884C96.7707 38.1119 96.7707 39.0355 96.9985 39.9591C97.2262 40.6518 97.6822 41.3444 98.1377 42.0372C98.5936 42.499 99.2769 42.9607 100.188 43.4225C101.1 43.8843 102.011 43.8843 103.15 43.8843C103.834 43.8843 104.29 43.8843 104.973 43.6534C105.657 43.6534 106.112 43.4225 106.568 43.1916V38.8046C106.34 38.8046 106.112 39.0355 105.657 39.0355C105.429 39.0355 104.973 39.0355 104.745 39.0355C103.834 39.0355 103.378 38.8046 102.923 38.3428C102.695 37.881 102.467 37.1884 102.467 36.4957V29.5688H106.796V25.1818H102.467V20.333Z" fill="white"/>
<path d="M115.455 15.7153H109.531V43.4228H115.455V15.7153Z" fill="white"/>
<path d="M125.024 16.8699C124.796 16.639 124.34 16.4081 123.885 16.1772C123.429 15.9463 122.973 15.9463 122.518 15.9463C122.062 15.9463 121.606 15.9463 121.151 16.1772C120.695 16.4081 120.467 16.639 120.012 16.8699C119.783 17.1008 119.556 17.5626 119.328 18.0244C119.1 18.4862 119.1 18.9479 119.1 19.1788C119.1 20.1024 119.328 20.7951 120.012 21.4878C120.695 22.1805 121.379 22.4113 122.518 22.4113C122.973 22.4113 123.429 22.4113 123.885 22.1805C124.34 21.9496 124.568 21.7187 125.024 21.4878C125.252 21.2569 125.479 20.7951 125.708 20.3333C125.935 19.8715 125.935 19.4097 125.935 18.9479C125.935 18.4862 125.935 18.0244 125.708 17.5626C125.708 17.5626 125.479 17.3317 125.024 16.8699Z" fill="white"/>
<path d="M125.708 25.1821H119.784V43.4229H125.708V25.1821Z" fill="white"/>
<path d="M134.593 32.1091C134.593 31.6473 134.821 31.1855 135.048 30.7237C135.276 30.262 135.504 30.0311 135.96 29.5693C136.188 29.3383 136.643 29.1074 137.099 28.8765C137.555 28.6457 138.01 28.6457 138.694 28.6457C139.833 28.6457 140.744 28.8765 141.428 29.5693C142.112 30.262 142.34 30.9546 142.34 32.1091H134.593ZM145.073 27.2603C144.39 26.3367 143.251 25.644 142.112 25.4131C140.973 24.9514 139.833 24.7205 138.466 24.7205C137.099 24.4896 135.96 24.7205 134.821 25.1822C133.681 25.644 132.542 26.3367 131.858 27.0294C130.947 27.953 130.264 28.8765 129.808 30.0311C129.352 31.1855 129.125 32.5709 129.125 34.1871C129.125 35.8034 129.352 37.1888 129.808 38.3433C130.264 39.4977 130.947 40.6522 131.858 41.3449C132.77 42.2685 133.909 42.7303 135.048 43.1921C136.188 43.6539 137.555 43.8848 138.922 43.8848C140.744 43.8848 142.34 43.6539 143.707 42.9612C145.073 42.2685 146.213 41.3449 147.124 40.1904L143.023 37.6506C142.567 38.1124 142.112 38.5742 141.428 39.0359C140.744 39.4977 140.061 39.4977 139.15 39.4977C138.694 39.4977 138.01 39.4977 137.555 39.2668C137.099 39.0359 136.643 38.8051 136.188 38.5742C135.732 38.3433 135.504 37.8815 135.276 37.4197C135.048 36.9579 134.821 36.4961 134.821 36.0343H147.808C147.808 35.8034 147.808 35.5725 147.808 35.3417V34.418C147.808 32.8018 147.58 31.4164 147.124 30.262C146.44 29.1074 145.757 27.953 145.073 27.2603Z" fill="white"/>
<path d="M161.251 24.7202C160.112 24.7202 159.2 24.9511 158.289 25.6438C157.378 26.3365 156.694 27.0291 156.238 27.9527V25.182H150.77V43.4227H156.694V33.956C156.694 33.4942 156.694 33.2633 156.922 32.5706C157.15 32.1089 157.378 31.6471 157.605 31.1853C157.834 30.7235 158.289 30.4926 158.973 30.0308C159.428 29.7999 160.112 29.569 161.023 29.569C161.251 29.569 161.479 29.569 161.707 29.569C161.934 29.569 162.162 29.569 162.39 29.7999L162.618 24.7202C162.39 24.7202 162.39 24.7202 162.162 24.7202C161.707 24.7202 161.479 24.7202 161.251 24.7202Z" fill="white"/>
<path d="M62.5946 45.6211L55.9871 63.8618L49.3796 45.6211H43L52.7973 71.4814H58.9491L68.7464 45.6211H62.5946Z" fill="white"/>
<path d="M71.7078 60.1677C71.7078 59.7056 71.9357 59.244 72.1635 58.7819C72.3914 58.3203 72.6192 58.0895 73.0749 57.6275C73.5306 57.3967 73.7584 57.1659 74.4419 56.9351C74.8977 56.7043 75.3534 56.7043 76.0369 56.7043C77.1761 56.7043 78.0875 56.9351 78.771 57.6275C79.4545 58.3203 79.6824 59.0132 79.6824 60.1677H71.7078ZM82.1887 55.3185C81.5052 54.3949 80.3659 53.7025 79.2267 53.4717C78.0875 53.0096 76.9483 52.7788 75.5812 52.7788C74.2141 52.7788 72.847 53.0096 71.7078 53.4717C70.5686 53.9333 69.4294 54.6261 68.7458 55.3185C67.8345 56.2422 67.1509 57.1659 66.6952 58.3203C66.2396 59.4748 66.0117 60.8601 66.0117 62.4766C66.0117 64.0927 66.2396 65.4779 66.6952 66.6324C67.1509 67.7869 67.8345 68.9413 68.7458 69.6342C69.6572 70.5579 70.7965 71.0195 71.9357 71.4815C73.0749 71.9431 74.442 72.1739 75.809 72.1739C77.6318 72.1739 79.2267 71.9431 80.5938 71.2503C81.9608 70.5579 83.1001 69.6342 84.0114 68.4797L79.9103 65.94C79.4545 66.4016 78.9989 66.8637 78.3153 67.3253C77.6318 67.7869 76.9483 67.7869 76.0369 67.7869C75.5812 67.7869 74.8977 67.7869 74.4419 67.5561C73.9863 67.3253 73.5306 67.0945 73.0749 66.8637C72.6192 66.6324 72.3914 66.1708 72.1635 65.7092C71.9357 65.2471 71.7078 64.7855 71.7078 64.3235H84.695C84.695 64.0927 84.695 63.8619 84.695 63.6311V62.4766C84.695 60.8601 84.4672 59.4748 84.0114 58.3203C83.5557 57.1659 82.8722 56.0114 82.1887 55.3185Z" fill="white"/>
<path d="M103.151 55.0877C102.695 54.3953 102.012 53.9333 101.1 53.4717C100.189 53.0096 99.2777 52.7788 97.9107 52.7788C97.227 52.7788 96.771 52.7788 96.0878 53.0096C95.6318 53.2404 94.9486 53.4717 94.4926 53.7025C94.0371 53.9333 93.5816 54.3953 93.3534 54.6261C92.8979 55.0877 92.6701 55.3185 92.4424 55.7806V53.2404H86.7461V71.4815H92.6701V61.5529C92.6701 61.0909 92.6701 60.6293 92.8979 60.1677C93.1256 59.7056 93.1256 59.244 93.5816 59.0132C93.8093 58.5511 94.2649 58.3203 94.4926 58.0895C94.9486 57.8587 95.4041 57.8587 95.86 57.8587C96.3155 57.8587 96.771 57.8587 97.227 58.0895C97.6825 58.3203 97.9102 58.5511 98.1384 59.0132C98.3662 59.4748 98.3662 59.7056 98.594 60.1677C98.594 60.6293 98.8217 61.0909 98.8217 61.5529V71.4815H104.746V60.1677C104.746 59.244 104.518 58.3203 104.29 57.3967C104.062 56.473 103.607 55.7806 103.151 55.0877Z" fill="white"/>
<path d="M115.455 48.3916H109.531V53.2403H106.569V57.6273H109.531V65.247C109.531 66.1707 109.531 67.0943 109.759 68.0175C109.986 68.7104 110.214 69.4033 110.898 70.0957C111.353 70.5577 112.037 71.0193 112.948 71.4809C113.86 71.943 114.771 71.943 115.91 71.943C116.594 71.943 117.05 71.943 117.733 71.7122C118.416 71.7122 118.872 71.4809 119.328 71.2501V66.8631C119.1 66.8631 118.872 67.0943 118.416 67.0943C118.189 67.0943 117.733 67.0943 117.505 67.0943C116.594 67.0943 116.138 66.8631 115.683 66.4015C115.455 65.9394 115.227 65.247 115.227 64.5541V57.6273H119.556V53.2403H115.227L115.455 48.3916Z" fill="white"/>
<path d="M134.138 62.938C134.138 64.0925 133.91 65.0162 133.226 65.7086C132.771 66.4014 131.859 66.863 130.948 66.863C130.492 66.863 130.036 66.863 129.581 66.6322C129.353 66.4014 128.897 66.1706 128.669 65.7086C128.442 65.247 128.214 65.0162 128.214 64.5541C128.214 64.0925 128.214 63.6309 128.214 63.1688V53.2402H122.29V64.5541C122.29 65.4778 122.518 66.4014 122.518 67.3251C122.746 68.2488 123.201 68.9412 123.657 69.634C124.112 70.3264 124.796 70.7885 125.707 71.2501C126.619 71.7122 127.53 71.943 128.669 71.943C129.353 71.943 129.809 71.943 130.492 71.7122C130.948 71.4809 131.631 71.2501 132.087 71.0193C132.542 70.7885 132.998 70.3264 133.226 70.0956C133.682 69.634 133.91 69.4032 134.138 68.9412V71.4809H139.834V53.2402H133.91L134.138 62.938Z" fill="white"/>
<path d="M154.187 52.7787C153.048 52.7787 152.137 53.0095 151.225 53.7023C150.314 54.3952 149.631 55.0876 149.175 56.0113V53.2407H143.479V71.4814H149.403V62.0144C149.403 61.5528 149.403 61.322 149.631 60.6291C149.858 60.1675 150.086 59.7055 150.314 59.2439C150.542 58.7818 150.998 58.551 151.681 58.0894C152.137 57.8586 152.82 57.6273 153.732 57.6273C153.96 57.6273 154.187 57.6273 154.415 57.6273C154.643 57.6273 154.871 57.6273 155.099 57.8586L155.327 52.5479C155.099 52.5479 155.099 52.5479 154.871 52.5479C154.643 52.7787 154.415 52.7787 154.187 52.7787Z" fill="white"/>
<path d="M161.934 60.1677C161.934 59.7056 162.163 59.244 162.39 58.7819C162.618 58.3203 162.846 58.0895 163.302 57.6275C163.757 57.3967 163.985 57.1659 164.669 56.9351C165.124 56.7043 165.58 56.7043 166.263 56.7043C167.403 56.7043 168.314 56.9351 168.998 57.6275C169.681 58.3203 169.909 59.0132 169.909 60.1677H161.934ZM172.415 55.3185C171.732 54.3949 170.593 53.7025 169.453 53.4717C168.314 53.0096 167.175 52.7788 165.808 52.7788C164.441 52.7788 163.074 53.0096 161.934 53.4717C160.795 53.9333 159.656 54.6261 158.973 55.3185C158.061 56.2422 157.377 57.1659 156.922 58.3203C156.466 59.4748 156.238 60.8601 156.238 62.4766C156.238 64.0927 156.466 65.4779 156.922 66.6324C157.377 67.7869 158.061 68.9413 158.973 69.6342C159.884 70.5579 161.023 71.0195 162.163 71.4815C163.302 71.9431 164.669 72.1739 166.036 72.1739C167.859 72.1739 169.453 71.9431 170.82 71.2503C172.188 70.5579 173.327 69.6342 174.238 68.4797L170.137 65.94C169.681 66.4016 169.226 66.8637 168.542 67.3253C167.859 67.7869 167.175 67.7869 166.263 67.7869C165.808 67.7869 165.124 67.7869 164.669 67.5561C164.213 67.3253 163.757 67.0945 163.302 66.8637C162.846 66.6324 162.618 66.1708 162.39 65.7092C162.163 65.2471 161.934 64.7855 161.934 64.3235H174.922C174.922 64.0927 174.922 63.8619 174.922 63.6311V62.4766C174.922 60.8601 174.694 59.4748 174.238 58.3203C173.782 57.1659 173.099 56.0114 172.415 55.3185Z" fill="white"/>
<path d="M190.414 61.7834C189.959 61.3213 189.275 61.0905 188.592 60.6289C187.908 60.3977 187.225 60.1669 186.541 59.9361C185.402 59.7053 184.491 59.4745 184.035 59.2432C183.579 59.0124 183.351 58.5508 183.351 58.0887C183.351 57.6271 183.579 57.1651 184.035 56.9343C184.491 56.7035 184.947 56.7035 185.63 56.7035C186.314 56.7035 186.997 56.9343 187.68 57.1651C188.364 57.3963 188.82 57.8579 189.275 58.32L192.465 54.8561C191.554 53.9329 190.414 53.4709 189.275 53.0093C187.908 52.5472 186.769 52.3164 185.402 52.3164C184.491 52.3164 183.579 52.5472 182.896 52.7785C181.984 53.0093 181.301 53.4709 180.389 53.9329C179.706 54.3945 179.022 55.0874 178.567 55.7798C178.111 56.4727 177.883 57.3963 177.883 58.5508C177.883 59.4745 178.111 60.1669 178.339 60.8597C178.567 61.5521 179.022 62.0142 179.478 62.4758C179.934 62.9379 180.617 63.1687 181.073 63.3995C181.757 63.6303 182.212 63.8611 182.896 64.0923C184.035 64.3231 184.947 64.5539 185.63 65.0155C186.314 65.2468 186.541 65.7084 186.541 66.17C186.541 66.8629 186.314 67.0937 185.858 67.3245C185.402 67.5557 184.947 67.7865 184.491 67.7865C183.579 67.7865 182.896 67.5557 181.984 67.0937C181.301 66.6321 180.617 66.17 179.934 65.7084L176.516 69.1718C177.428 70.0955 178.567 70.7883 179.934 71.2499C181.301 71.7115 182.668 71.9428 184.263 71.9428C185.174 71.9428 186.086 71.9428 186.997 71.7115C187.908 71.4807 188.82 71.2499 189.503 70.5571C190.187 70.0955 190.87 69.4026 191.326 68.7102C191.782 68.0173 192.01 66.8629 192.01 65.7084C192.01 64.7847 191.782 64.0923 191.554 63.3995C191.326 62.9379 190.87 62.245 190.414 61.7834Z" fill="white"/>
<path d="M206.137 50.0074C206.137 51.1618 205.681 52.0855 204.998 53.0092C204.086 53.702 203.175 54.1636 202.036 54.1636C201.352 54.1636 200.897 54.1636 200.441 53.9328C199.985 53.702 199.529 53.4712 199.074 53.0092C198.618 52.5476 198.39 52.3168 198.162 51.6239C197.935 51.1618 197.935 50.4694 197.935 50.0074C197.935 49.5458 197.935 48.8529 198.162 48.3913C198.39 47.9297 198.618 47.4676 199.074 47.006C199.529 46.544 199.985 46.3132 200.441 46.0824C200.897 45.8516 201.58 45.8516 202.036 45.8516C203.175 45.8516 204.086 46.3132 204.998 47.006C205.681 47.6984 206.137 48.8529 206.137 50.0074Z" fill="white"/>
</g>
<defs>
<clipPath id="clip0_613_573">
<rect width="163" height="62" fill="white" transform="translate(43 13)"/>
</clipPath>
</defs>
</svg>
