<svg width="80" height="80" viewBox="0 0 80 80" fill="none" xmlns="http://www.w3.org/2000/svg">
<g clip-path="url(#clip0_629_512)">
<path fill-rule="evenodd" clip-rule="evenodd" d="M54.9997 6.6665C48.5564 6.6665 43.333 11.8898 43.333 18.3332C43.333 22.2143 45.2281 25.6528 48.1435 27.7737C39.5376 30.6422 33.333 38.7631 33.333 48.3332V49.9998C33.333 53.6817 36.3178 56.6665 39.9997 56.6665H69.9997C73.6816 56.6665 76.6663 53.6817 76.6663 49.9998V48.3332C76.6663 38.7631 70.4618 30.6422 61.8558 27.7737C64.7712 25.6528 66.6663 22.2143 66.6663 18.3332C66.6663 11.8898 61.443 6.6665 54.9997 6.6665Z" fill="url(#paint0_linear_629_512)"/>
<g filter="url(#filter0_b_629_512)">
<mask id="path-2-inside-1_629_512" fill="white">
<path fill-rule="evenodd" clip-rule="evenodd" d="M29.9997 16.6665C22.6359 16.6665 16.6663 22.636 16.6663 29.9998C16.6663 33.306 17.8696 36.331 19.8622 38.661C10.1623 42.6508 3.33301 52.1945 3.33301 63.3332V66.6665C3.33301 70.3484 6.31777 73.3332 9.99967 73.3332H49.9997C53.6816 73.3332 56.6663 70.3484 56.6663 66.6665V63.3332C56.6663 52.1945 49.837 42.6508 40.1372 38.661C42.1297 36.331 43.333 33.306 43.333 29.9998C43.333 22.636 37.3635 16.6665 29.9997 16.6665Z"/>
</mask>
<path fill-rule="evenodd" clip-rule="evenodd" d="M29.9997 16.6665C22.6359 16.6665 16.6663 22.636 16.6663 29.9998C16.6663 33.306 17.8696 36.331 19.8622 38.661C10.1623 42.6508 3.33301 52.1945 3.33301 63.3332V66.6665C3.33301 70.3484 6.31777 73.3332 9.99967 73.3332H49.9997C53.6816 73.3332 56.6663 70.3484 56.6663 66.6665V63.3332C56.6663 52.1945 49.837 42.6508 40.1372 38.661C42.1297 36.331 43.333 33.306 43.333 29.9998C43.333 22.636 37.3635 16.6665 29.9997 16.6665Z" fill="#C2C9CF" fill-opacity="0.25"/>
<path d="M19.8622 38.661L20.4962 40.2024L22.6246 39.3269L21.1288 37.5778L19.8622 38.661ZM40.1372 38.661L38.8705 37.5778L37.3747 39.3269L39.5032 40.2024L40.1372 38.661ZM18.333 29.9998C18.333 23.5565 23.5564 18.3332 29.9997 18.3332V14.9998C21.7154 14.9998 14.9997 21.7156 14.9997 29.9998H18.333ZM21.1288 37.5778C19.3847 35.5383 18.333 32.894 18.333 29.9998H14.9997C14.9997 33.7179 16.3546 37.1238 18.5955 39.7442L21.1288 37.5778ZM4.99967 63.3332C4.99967 52.8932 11.3994 43.9441 20.4962 40.2024L19.2282 37.1196C8.92522 41.3575 1.66634 51.4957 1.66634 63.3332H4.99967ZM4.99967 66.6665V63.3332H1.66634V66.6665H4.99967ZM9.99967 71.6665C7.23825 71.6665 4.99967 69.4279 4.99967 66.6665H1.66634C1.66634 71.2689 5.3973 74.9998 9.99967 74.9998V71.6665ZM49.9997 71.6665H9.99967V74.9998H49.9997V71.6665ZM54.9997 66.6665C54.9997 69.4279 52.7611 71.6665 49.9997 71.6665V74.9998C54.602 74.9998 58.333 71.2689 58.333 66.6665H54.9997ZM54.9997 63.3332V66.6665H58.333V63.3332H54.9997ZM39.5032 40.2024C48.5999 43.9441 54.9997 52.8932 54.9997 63.3332H58.333C58.333 51.4957 51.0741 41.3575 40.7712 37.1196L39.5032 40.2024ZM41.6663 29.9998C41.6663 32.894 40.6147 35.5383 38.8705 37.5778L41.4038 39.7442C43.6448 37.1238 44.9997 33.7179 44.9997 29.9998H41.6663ZM29.9997 18.3332C36.443 18.3332 41.6663 23.5565 41.6663 29.9998H44.9997C44.9997 21.7156 38.2839 14.9998 29.9997 14.9998V18.3332Z" fill="url(#paint1_linear_629_512)" mask="url(#path-2-inside-1_629_512)"/>
</g>
</g>
<defs>
<filter id="filter0_b_629_512" x="-28.667" y="-15.3335" width="117.333" height="120.667" filterUnits="userSpaceOnUse" color-interpolation-filters="sRGB">
<feFlood flood-opacity="0" result="BackgroundImageFix"/>
<feGaussianBlur in="BackgroundImage" stdDeviation="16"/>
<feComposite in2="SourceAlpha" operator="in" result="effect1_backgroundBlur_629_512"/>
<feBlend mode="normal" in="SourceGraphic" in2="effect1_backgroundBlur_629_512" result="shape"/>
</filter>
<linearGradient id="paint0_linear_629_512" x1="54.9997" y1="6.6665" x2="54.9997" y2="56.6665" gradientUnits="userSpaceOnUse">
<stop stop-color="#56DB75"/>
<stop offset="1" stop-color="#1FAB3F"/>
</linearGradient>
<linearGradient id="paint1_linear_629_512" x1="43.333" y1="26.6665" x2="-1.15965" y2="45.9054" gradientUnits="userSpaceOnUse">
<stop stop-color="white" stop-opacity="0.2"/>
<stop offset="1" stop-color="white" stop-opacity="0"/>
</linearGradient>
<clipPath id="clip0_629_512">
<rect width="80" height="80" fill="white"/>
</clipPath>
</defs>
</svg>
