<svg width="80" height="80" viewBox="0 0 80 80" fill="none" xmlns="http://www.w3.org/2000/svg">
<rect x="36.6665" y="30" width="40" height="46.6667" rx="6.66667" fill="url(#paint0_linear_627_512)"/>
<rect x="3.3335" y="3.33325" width="13.3333" height="73.3333" rx="6.66667" fill="url(#paint1_linear_627_512)"/>
<g filter="url(#filter0_b_627_512)">
<mask id="path-3-inside-1_627_512" fill="white">
<path fill-rule="evenodd" clip-rule="evenodd" d="M10.0002 3.33325C6.31826 3.33325 3.3335 6.31803 3.3335 9.99993V69.9999C3.3335 73.6818 6.31826 76.6666 10.0002 76.6666H50.0002C53.6821 76.6666 56.6668 73.6818 56.6668 69.9999V9.99992C56.6668 6.31802 53.6821 3.33325 50.0002 3.33325H10.0002ZM30 43.4444V20H43.3333V28.8889H34.4444V51.1111C34.4444 56.0222 30.4667 60 25.5556 60C20.6444 60 16.6667 56.0222 16.6667 51.1111C16.6667 46.2 20.6444 42.2222 25.5556 42.2222C27.1778 42.2222 28.6889 42.6889 30 43.4444Z"/>
</mask>
<path fill-rule="evenodd" clip-rule="evenodd" d="M10.0002 3.33325C6.31826 3.33325 3.3335 6.31803 3.3335 9.99993V69.9999C3.3335 73.6818 6.31826 76.6666 10.0002 76.6666H50.0002C53.6821 76.6666 56.6668 73.6818 56.6668 69.9999V9.99992C56.6668 6.31802 53.6821 3.33325 50.0002 3.33325H10.0002ZM30 43.4444V20H43.3333V28.8889H34.4444V51.1111C34.4444 56.0222 30.4667 60 25.5556 60C20.6444 60 16.6667 56.0222 16.6667 51.1111C16.6667 46.2 20.6444 42.2222 25.5556 42.2222C27.1778 42.2222 28.6889 42.6889 30 43.4444Z" fill="#C2C9CF" fill-opacity="0.25"/>
<path d="M30 20V18.3333H28.3333V20H30ZM30 43.4444L29.1678 44.8885L31.6667 46.3285V43.4444H30ZM43.3333 20H45V18.3333H43.3333V20ZM43.3333 28.8889V30.5556H45V28.8889H43.3333ZM34.4444 28.8889V27.2222H32.7778V28.8889H34.4444ZM5.00016 9.99993C5.00016 7.2385 7.23874 4.99992 10.0002 4.99992V1.66659C5.39779 1.66659 1.66683 5.39755 1.66683 9.99993H5.00016ZM5.00016 69.9999V9.99993H1.66683V69.9999H5.00016ZM10.0002 74.9999C7.23874 74.9999 5.00016 72.7613 5.00016 69.9999H1.66683C1.66683 74.6023 5.39779 78.3332 10.0002 78.3332V74.9999ZM50.0002 74.9999H10.0002V78.3332H50.0002V74.9999ZM55.0002 69.9999C55.0002 72.7613 52.7616 74.9999 50.0002 74.9999V78.3332C54.6025 78.3332 58.3335 74.6023 58.3335 69.9999H55.0002ZM55.0002 9.99992V69.9999H58.3335V9.99992H55.0002ZM50.0002 4.99992C52.7616 4.99992 55.0002 7.23849 55.0002 9.99992H58.3335C58.3335 5.39755 54.6025 1.66659 50.0002 1.66659V4.99992ZM10.0002 4.99992H50.0002V1.66659H10.0002V4.99992ZM28.3333 20V43.4444H31.6667V20H28.3333ZM43.3333 18.3333H30V21.6667H43.3333V18.3333ZM45 28.8889V20H41.6667V28.8889H45ZM34.4444 30.5556H43.3333V27.2222H34.4444V30.5556ZM36.1111 51.1111V28.8889H32.7778V51.1111H36.1111ZM25.5556 61.6667C31.3871 61.6667 36.1111 56.9427 36.1111 51.1111H32.7778C32.7778 55.1017 29.5462 58.3333 25.5556 58.3333V61.6667ZM15 51.1111C15 56.9427 19.724 61.6667 25.5556 61.6667V58.3333C21.5649 58.3333 18.3333 55.1017 18.3333 51.1111H15ZM25.5556 40.5556C19.724 40.5556 15 45.2795 15 51.1111H18.3333C18.3333 47.1205 21.5649 43.8889 25.5556 43.8889V40.5556ZM30.8322 42.0004C29.2986 41.1166 27.5033 40.5556 25.5556 40.5556V43.8889C26.8523 43.8889 28.0792 44.2612 29.1678 44.8885L30.8322 42.0004Z" fill="url(#paint2_linear_627_512)" mask="url(#path-3-inside-1_627_512)"/>
</g>
<defs>
<filter id="filter0_b_627_512" x="-2.6665" y="-2.66675" width="65.3335" height="85.3333" filterUnits="userSpaceOnUse" color-interpolation-filters="sRGB">
<feFlood flood-opacity="0" result="BackgroundImageFix"/>
<feGaussianBlur in="BackgroundImage" stdDeviation="3"/>
<feComposite in2="SourceAlpha" operator="in" result="effect1_backgroundBlur_627_512"/>
<feBlend mode="normal" in="SourceGraphic" in2="effect1_backgroundBlur_627_512" result="shape"/>
</filter>
<linearGradient id="paint0_linear_627_512" x1="56.6665" y1="30" x2="56.6665" y2="76.6667" gradientUnits="userSpaceOnUse">
<stop stop-color="#56DB75"/>
<stop offset="1" stop-color="#1FAB3F"/>
</linearGradient>
<linearGradient id="paint1_linear_627_512" x1="10.0002" y1="3.33325" x2="10.0002" y2="76.6666" gradientUnits="userSpaceOnUse">
<stop stop-color="#3BCC5D"/>
<stop offset="1" stop-color="#148C30"/>
</linearGradient>
<linearGradient id="paint2_linear_627_512" x1="3.3335" y1="3.33325" x2="56.6668" y2="76.6666" gradientUnits="userSpaceOnUse">
<stop stop-color="white" stop-opacity="0"/>
<stop offset="1" stop-color="white" stop-opacity="0.2"/>
</linearGradient>
</defs>
</svg>
