<svg width="80" height="80" viewBox="0 0 80 80" fill="none" xmlns="http://www.w3.org/2000/svg">
<g clip-path="url(#clip0_629_513)">
<path d="M13.3335 16.6667C13.3335 12.9848 16.3183 10 20.0002 10H60.0002C63.6821 10 66.6668 12.9848 66.6668 16.6667V36.6667C66.6668 40.3486 63.6821 43.3333 60.0002 43.3333H20.0002C16.3183 43.3333 13.3335 40.3486 13.3335 36.6667V16.6667Z" fill="url(#paint0_linear_629_513)"/>
<g filter="url(#filter0_b_629_513)">
<mask id="path-2-inside-1_629_513" fill="white">
<path d="M6.6665 26.6667C6.6665 22.9848 9.65127 20 13.3332 20H66.6665C70.3484 20 73.3332 22.9848 73.3332 26.6667V63.3333C73.3332 67.0152 70.3484 70 66.6665 70H13.3332C9.65127 70 6.6665 67.0152 6.6665 63.3333V26.6667Z"/>
</mask>
<path d="M6.6665 26.6667C6.6665 22.9848 9.65127 20 13.3332 20H66.6665C70.3484 20 73.3332 22.9848 73.3332 26.6667V63.3333C73.3332 67.0152 70.3484 70 66.6665 70H13.3332C9.65127 70 6.6665 67.0152 6.6665 63.3333V26.6667Z" fill="#C2C9CF" fill-opacity="0.25"/>
<path d="M13.3332 21.6667H66.6665V18.3333H13.3332V21.6667ZM71.6665 26.6667V63.3333H74.9998V26.6667H71.6665ZM8.33317 63.3333V26.6667H4.99984V63.3333H8.33317ZM66.6665 68.3333H13.3332V71.6667H66.6665V68.3333ZM4.99984 63.3333C4.99984 67.9357 8.73079 71.6667 13.3332 71.6667V68.3333C10.5717 68.3333 8.33317 66.0948 8.33317 63.3333H4.99984ZM71.6665 63.3333C71.6665 66.0948 69.4279 68.3333 66.6665 68.3333V71.6667C71.2689 71.6667 74.9998 67.9357 74.9998 63.3333H71.6665ZM66.6665 21.6667C69.4279 21.6667 71.6665 23.9052 71.6665 26.6667H74.9998C74.9998 22.0643 71.2689 18.3333 66.6665 18.3333V21.6667ZM13.3332 18.3333C8.7308 18.3333 4.99984 22.0643 4.99984 26.6667H8.33317C8.33317 23.9052 10.5717 21.6667 13.3332 21.6667V18.3333Z" fill="url(#paint1_linear_629_513)" mask="url(#path-2-inside-1_629_513)"/>
</g>
<path fill-rule="evenodd" clip-rule="evenodd" d="M55.0002 33.3333C48.5568 33.3333 43.3335 38.5566 43.3335 44.9999C43.3335 51.4432 48.5568 56.6666 55.0002 56.6666H73.3335V33.3333H55.0002ZM55 50C57.7614 50 60 47.7614 60 45C60 42.2386 57.7614 40 55 40C52.2386 40 50 42.2386 50 45C50 47.7614 52.2386 50 55 50Z" fill="url(#paint2_linear_629_513)"/>
</g>
<defs>
<filter id="filter0_b_629_513" x="0.666504" y="14" width="78.6665" height="62" filterUnits="userSpaceOnUse" color-interpolation-filters="sRGB">
<feFlood flood-opacity="0" result="BackgroundImageFix"/>
<feGaussianBlur in="BackgroundImage" stdDeviation="3"/>
<feComposite in2="SourceAlpha" operator="in" result="effect1_backgroundBlur_629_513"/>
<feBlend mode="normal" in="SourceGraphic" in2="effect1_backgroundBlur_629_513" result="shape"/>
</filter>
<linearGradient id="paint0_linear_629_513" x1="40.0002" y1="10" x2="40.0002" y2="43.3333" gradientUnits="userSpaceOnUse">
<stop stop-color="#56DB75"/>
<stop offset="1" stop-color="#1FAB3F"/>
</linearGradient>
<linearGradient id="paint1_linear_629_513" x1="54.8146" y1="20" x2="8.55427" y2="68.2593" gradientUnits="userSpaceOnUse">
<stop stop-color="white" stop-opacity="0.2"/>
<stop offset="1" stop-color="white" stop-opacity="0"/>
</linearGradient>
<linearGradient id="paint2_linear_629_513" x1="50.0002" y1="53.3333" x2="56.6668" y2="34.9999" gradientUnits="userSpaceOnUse">
<stop stop-color="#56DB75"/>
<stop offset="1" stop-color="#1FAB3F"/>
</linearGradient>
<clipPath id="clip0_629_513">
<rect width="80" height="80" fill="white"/>
</clipPath>
</defs>
</svg>
